<svg width="149" height="48" viewBox="0 0 149 48" fill="none" xmlns="http://www.w3.org/2000/svg">
<g clip-path="url(#clip0_40_2498)">
<path d="M9.54899 48H8.41913C7.6231 47.9779 6.82995 47.8947 6.04671 47.7509C5.31926 47.599 4.60523 47.3887 3.91153 47.1222C3.27537 46.7763 2.68382 46.3541 2.15001 45.8648C1.62023 45.3656 1.19223 44.7684 0.889658 44.1063C0.547691 43.4404 0.334399 42.716 0.260966 41.9711C0.111285 41.2254 0.023994 40.4686 0 39.7084L0 8.41913C0.014924 7.6225 0.0992665 6.82869 0.25207 6.04671C0.404692 5.31362 0.617955 4.59448 0.889658 3.8967C1.23275 3.26174 1.65092 2.67033 2.13518 2.13518C2.63718 1.61104 3.23519 1.18821 3.8967 0.889658C4.52243 0.51007 5.27864 0.385518 6.03188 0.260966C6.81846 0.104316 7.61728 0.0169927 8.41913 0L139.857 0C140.658 0.027412 141.456 0.111647 142.244 0.25207C142.972 0.405484 143.687 0.618737 144.38 0.889658C145.671 1.55358 146.723 2.60507 147.387 3.8967C147.711 4.52536 147.924 5.20572 148.015 5.90733C148.162 6.69026 148.246 7.48354 148.267 8.27975V39.566C148.24 40.3678 148.156 41.1665 148.015 41.9563C147.865 42.6841 147.655 43.3982 147.387 44.0914C147.041 44.7264 146.62 45.3169 146.132 45.85C145.631 46.3782 145.033 46.8051 144.371 47.1074C143.728 47.5037 142.991 47.7208 142.236 47.7361C141.448 47.8872 140.65 47.9706 139.848 47.9852H9.54899V48Z" fill="#585858"/>
<path d="M30.0334 24.3765C30.0373 23.3114 30.3172 22.2656 30.8458 21.341C31.3744 20.4164 32.1336 19.6446 33.0493 19.1008C32.4714 18.29 31.7179 17.6201 30.845 17.141C29.9721 16.6619 29.0023 16.3861 28.0079 16.334C25.8727 16.0849 23.8562 17.5913 22.7293 17.5913C21.6024 17.5913 19.9654 16.334 18.2069 16.334C17.057 16.3799 15.9373 16.7151 14.9513 17.3086C13.9654 17.9022 13.1451 18.7348 12.5664 19.7295C10.194 23.8812 11.9377 30.1563 14.3279 33.5518C15.4578 35.1828 16.8397 37.0689 18.5983 37.0689C20.3569 36.9444 20.9856 35.939 23.1237 35.939C25.2618 35.939 25.7601 37.0689 27.6461 37.0689C29.5322 37.0689 30.6621 35.4349 31.7979 33.6764C32.6742 32.5126 33.3149 31.189 33.6839 29.7797C31.4153 29.0264 30.0334 26.7637 30.0334 24.3765Z" fill="white"/>
<path d="M26.6393 14.1987C27.6519 12.9668 28.1472 11.3904 28.0212 9.80078C26.4715 10.0176 25.0477 10.7736 24 11.936C23.4921 12.5174 23.1077 13.1961 22.8701 13.9307C22.6326 14.6653 22.5468 15.4405 22.6181 16.2093C23.3955 16.1933 24.1596 16.0046 24.8551 15.6569C25.5506 15.3091 26.1601 14.811 26.6393 14.1987Z" fill="white"/>
<path d="M52.0198 33.048H46.1155L44.7335 37.3213H42.2188L47.7495 21.604H50.3888L56.047 37.1938H53.5352L52.0198 33.048ZM46.7441 31.0373H51.5186L49.2559 24.2522H49.0039L46.7441 31.0373Z" fill="white"/>
<path d="M68.2335 31.5419C68.2335 35.059 66.3504 37.3217 63.459 37.3217C62.7398 37.3713 62.0219 37.2069 61.396 36.849C60.7701 36.4912 60.2641 35.9561 59.9419 35.3111V40.9663H57.5547V25.8866H59.8144V27.7697C60.1973 27.1477 60.7348 26.6355 61.3746 26.2831C62.0144 25.9307 62.7346 25.7502 63.465 25.7591C66.3504 25.7591 68.2335 28.0218 68.2335 31.5419ZM65.8463 31.5419C65.8463 29.2792 64.7164 27.7697 62.8304 27.7697C61.0718 27.7697 59.8144 29.2792 59.8144 31.5419C59.8144 33.8046 61.0718 35.3111 62.8304 35.3111C64.5889 35.3111 65.8374 33.8075 65.8374 31.5419H65.8463Z" fill="white"/>
<path d="M80.799 31.5418C80.799 35.059 78.9129 37.3217 76.0245 37.3217C75.3048 37.3715 74.5865 37.2072 73.96 36.8493C73.3336 36.4915 72.8271 35.9563 72.5044 35.311V40.9663H70.1172V25.8866H72.3799V27.7697C72.7618 27.1481 73.2983 26.6361 73.937 26.2838C74.5758 25.9314 75.295 25.7506 76.0245 25.7591C78.7884 25.7591 80.799 28.0218 80.799 31.5418ZM78.2842 31.5418C78.2842 29.2792 77.1544 27.7697 75.2683 27.7697C73.5097 27.7697 72.2524 29.2792 72.2524 31.5418C72.2524 33.8045 73.5097 35.311 75.2683 35.311C77.1544 35.311 78.2842 33.8016 78.2842 31.5418Z" fill="white"/>
<path d="M88.965 32.9177C89.0896 34.4242 90.599 35.4295 92.7342 35.4295C94.7449 35.4295 96.1268 34.4242 96.1268 33.0571C96.1268 31.7997 95.2371 31.171 93.2384 30.6847L91.2277 30.1805C88.3364 29.4273 87.076 28.1728 87.076 26.0288C87.076 23.3895 89.4633 21.5063 92.7313 21.5063C95.9993 21.5063 98.262 23.3895 98.3865 26.0288H96.0141C95.8895 24.5223 94.6322 23.517 92.752 23.517C90.8719 23.517 89.6115 24.5223 89.6115 25.9042C89.6115 27.0341 90.5012 27.6628 92.5 28.1669L94.2615 28.5435C97.402 29.2968 98.7839 30.5542 98.7839 32.8139C98.7839 35.7053 96.3967 37.5884 92.752 37.5884C89.2349 37.5884 86.9722 35.8298 86.8477 32.9414L88.965 32.9177Z" fill="white"/>
<path d="M103.67 23.1313V25.7677H105.805V27.6538H103.67V33.9377C103.67 34.943 104.047 35.3197 105.052 35.3197H105.805V37.2028C105.395 37.3082 104.971 37.3511 104.548 37.3303C102.288 37.3303 101.407 36.4406 101.407 34.3143V27.6449H99.7734V25.7588H101.422V23.1313H103.67Z" fill="white"/>
<path d="M107.055 31.5416C107.055 28.0215 109.19 25.7588 112.458 25.7588C115.726 25.7588 117.861 28.0215 117.861 31.5416C117.861 35.1832 115.723 37.3214 112.458 37.3214C109.193 37.3214 107.055 35.1832 107.055 31.5416ZM115.474 31.5416C115.474 29.0268 114.341 27.6449 112.458 27.6449C110.575 27.6449 109.442 29.1543 109.442 31.5416C109.442 34.0534 110.572 35.4353 112.458 35.4353C114.344 35.4353 115.474 34.0534 115.474 31.5416Z" fill="white"/>
<path d="M119.75 25.8859H122.013V27.769C122.153 27.1569 122.511 26.6162 123.019 26.2467C123.526 25.8772 124.151 25.7038 124.777 25.7584C125.035 25.7382 125.295 25.782 125.533 25.8859V28.0211C125.207 27.9259 124.867 27.8838 124.527 27.8965C123.27 27.8965 122.137 28.9019 122.137 30.1563V37.321H119.75V25.8859Z" fill="white"/>
<path d="M136.34 33.9288C136.088 35.9394 133.95 37.4459 131.438 37.4459C128.176 37.4459 126.035 35.1832 126.035 31.6661C126.035 28.149 128.046 25.7588 131.314 25.7588C134.454 25.7588 136.465 27.8969 136.465 31.414V32.1673H128.422V32.2948C128.361 33.0731 128.6 33.8453 129.092 34.4522C129.583 35.0591 130.288 35.4545 131.062 35.5569H131.438C131.999 35.6273 132.566 35.5036 133.047 35.2062C133.527 34.9089 133.891 34.456 134.078 33.9229L136.34 33.9288ZM128.422 30.5451H134.078C134.202 29.0357 132.948 27.7783 131.438 27.6538H131.186C130.443 27.6895 129.741 28.0095 129.227 28.5476C128.713 29.0857 128.425 29.8008 128.422 30.5451Z" fill="white"/>
<path d="M46.4943 9.92533C46.9237 9.89053 47.3557 9.94111 47.7654 10.0741C48.175 10.2072 48.5543 10.42 48.8813 10.7004C49.2083 10.9808 49.4765 11.3232 49.6705 11.7078C49.8645 12.0924 49.9804 12.5116 50.0114 12.9413V13.57C50.0114 15.9572 48.757 17.3391 46.4943 17.3391H43.7305V9.80078H46.4943V9.92533ZM44.8603 16.3338H46.2423C47.4996 16.4614 48.6147 15.4442 48.757 14.0741V13.57C48.8816 12.3155 48.0008 11.0582 46.7464 10.9306H44.8603V16.3338Z" fill="white"/>
<path d="M51.2697 14.5751C51.2032 13.8751 51.4176 13.1774 51.8655 12.6354C52.3135 12.0935 52.9584 11.7517 53.6584 11.6852C54.3584 11.6188 55.0561 11.8331 55.5981 12.2811C56.1401 12.729 56.4819 13.374 56.5483 14.0739V14.5751C56.5897 14.9232 56.5601 15.276 56.4613 15.6123C56.3624 15.9485 56.1964 16.2613 55.9733 16.5315C55.7501 16.8018 55.4745 17.024 55.163 17.1847C54.8515 17.3454 54.5107 17.4413 54.1611 17.4665C53.4644 17.5288 52.7711 17.3151 52.2303 16.8715C51.6896 16.4278 51.3446 15.7895 51.2697 15.0941V14.5751ZM55.4214 14.5751C55.4214 13.3217 54.9193 12.694 53.9149 12.692C52.9096 12.692 52.4055 13.4453 52.4055 14.5751C52.4055 15.8325 52.9096 16.5857 53.9149 16.5857C54.9203 16.4612 55.4214 15.6961 55.4214 14.5751Z" fill="white"/>
<path d="M63.7092 17.3398H62.5734L61.4406 13.1881H61.3161L60.1862 17.3398H59.0534L57.5469 11.6875H58.6767L59.6821 15.9579H59.8066L60.9394 11.6875H62.0693L63.2021 15.9579H63.3267L64.0799 11.6875H65.2128L63.7092 17.3398Z" fill="white"/>
<path d="M66.6016 11.6873H67.7314V12.5769H67.856C68.0061 12.2721 68.239 12.0157 68.5279 11.8369C68.8168 11.658 69.1502 11.5641 69.49 11.5657C70.4953 11.4411 71.3761 12.1944 71.5006 13.3272V17.3396H70.3707V13.9381C70.3707 13.0484 69.9941 12.5562 69.1134 12.5562C68.9392 12.5441 68.7644 12.5674 68.5995 12.6248C68.4346 12.6821 68.283 12.7722 68.1538 12.8897C68.0247 13.0072 67.9207 13.1496 67.8481 13.3084C67.7755 13.4672 67.7358 13.639 67.7314 13.8136V17.3396H66.6016V11.6873Z" fill="white"/>
<path d="M73.1328 9.54932H74.2627V17.4673H73.1328V9.54932Z" fill="white"/>
<path d="M75.7697 14.5751C75.7032 13.8751 75.9176 13.1774 76.3655 12.6354C76.8135 12.0935 77.4584 11.7517 78.1584 11.6852C78.8584 11.6188 79.5561 11.8331 80.0981 12.2811C80.6401 12.729 80.9819 13.374 81.0483 14.0739V14.5751C81.1152 15.2751 80.9012 15.973 80.4535 16.5152C80.0058 17.0575 79.3611 17.3997 78.6611 17.4665C77.9611 17.5334 77.2632 17.3194 76.721 16.8717C76.1787 16.424 75.8365 15.7793 75.7697 15.0793V14.5751ZM80.043 14.5751C80.043 13.3217 79.5399 12.694 78.5336 12.692C77.5282 12.692 77.0271 13.4453 77.0271 14.5751C77.0271 15.8325 77.5282 16.5857 78.5336 16.5857C79.4143 16.4612 80.043 15.7168 80.043 14.5751Z" fill="white"/>
<path d="M82.3024 15.7172C82.3024 14.7119 83.0556 14.0832 84.4405 14.0832L85.947 13.9556V13.4456C85.947 12.8169 85.5704 12.5559 84.8171 12.5559C84.1884 12.5559 83.8118 12.808 83.6843 13.1846H82.5544C82.679 12.1882 83.5597 11.5654 84.8112 11.5654C86.1931 11.5654 87.0709 12.3216 87.0709 13.4515V17.3393H85.9411V16.5861H85.8165C85.4399 17.2148 84.8112 17.4757 84.055 17.4757C83.1653 17.6003 82.2964 16.847 82.1719 15.9663C82.3024 15.8328 82.3024 15.8328 82.3024 15.7172ZM85.947 15.3376V14.8275L84.5651 14.9521C83.8118 14.9521 83.4352 15.3287 83.4352 15.7083C83.4352 16.2094 83.9364 16.4615 84.4405 16.4615C85.1937 16.5861 85.947 16.0849 85.947 15.3287V15.3376Z" fill="white"/>
<path d="M88.5898 14.5759C88.5898 12.8173 89.4795 11.6875 90.9623 11.6875C91.3182 11.6838 91.6688 11.775 91.9779 11.9517C92.2869 12.1284 92.5434 12.3842 92.7208 12.6928H92.8483V9.54932H94.0079V17.4673H92.878V16.5776H92.7505C92.573 16.8862 92.3166 17.142 92.0075 17.3187C91.6984 17.4954 91.3479 17.5866 90.9919 17.5829C89.4676 17.4673 88.5898 16.3344 88.5898 14.5759ZM89.7197 14.5759C89.7197 15.8333 90.3484 16.462 91.2292 16.462C92.1099 16.462 92.7356 15.7087 92.7356 14.5759C92.7356 13.4431 92.107 12.6928 91.2292 12.6928C90.2238 12.5653 89.7197 13.3215 89.7197 14.5759Z" fill="white"/>
<path d="M98.5153 14.5751C98.4488 13.8751 98.6632 13.1774 99.1111 12.6354C99.5591 12.0935 100.204 11.7517 100.904 11.6852C101.604 11.6188 102.302 11.8331 102.844 12.2811C103.386 12.729 103.727 13.374 103.794 14.0739V14.5751C103.861 15.2751 103.647 15.973 103.199 16.5152C102.751 17.0575 102.107 17.3997 101.407 17.4665C100.707 17.5334 100.009 17.3194 99.4666 16.8717C98.9243 16.424 98.5821 15.7793 98.5153 15.0793C98.3907 14.8272 98.3907 14.7026 98.5153 14.5751ZM102.667 14.5751C102.667 13.3217 102.164 12.694 101.158 12.692C100.152 12.692 99.6511 13.4453 99.6511 14.5751C99.6511 15.8325 100.152 16.5857 101.158 16.5857C102.16 16.4612 102.664 15.7168 102.664 14.5751H102.667Z" fill="white"/>
<path d="M105.301 11.6873H106.434V12.5769H106.558C106.708 12.2721 106.941 12.0157 107.23 11.8369C107.519 11.658 107.852 11.5641 108.192 11.5657C109.197 11.4411 110.078 12.1944 110.203 13.3272V17.3396H109.073V13.9381C109.073 13.0484 108.696 12.5562 107.816 12.5562C107.641 12.5441 107.467 12.5674 107.302 12.6248C107.137 12.6821 106.985 12.7722 106.856 12.8897C106.727 13.0072 106.623 13.1496 106.55 13.3084C106.478 13.4672 106.438 13.639 106.434 13.8136V17.3396H105.301V11.6873Z" fill="white"/>
<path d="M116.358 10.3057V11.6876H117.616V12.5773H116.358V15.4686C116.358 16.0973 116.61 16.3583 117.114 16.3583H117.491V17.248H116.862C115.605 17.248 115.104 16.8713 115.104 15.7415V12.5654H114.348V11.6757H115.237V10.3057H116.358Z" fill="white"/>
<path d="M119.125 9.54932H120.258V12.5653H120.382C120.528 12.2307 120.778 11.9524 121.095 11.7722C121.412 11.592 121.779 11.5196 122.141 11.5659C122.632 11.5665 123.107 11.7454 123.477 12.0693C123.847 12.3932 124.086 12.8402 124.152 13.3274V17.3398H123.022V13.9383C123.022 13.0486 122.645 12.5564 121.764 12.5564C121.59 12.5443 121.415 12.5676 121.25 12.6249C121.086 12.6823 120.934 12.7724 120.805 12.8899C120.676 13.0074 120.572 13.1498 120.499 13.3086C120.426 13.4674 120.387 13.6392 120.382 13.8137V17.3398H119.253L119.125 9.54932Z" fill="white"/>
<path d="M130.557 15.8333C130.308 16.8386 129.175 17.5919 128.046 17.4673C126.664 17.4673 125.406 16.3345 125.406 14.9525V14.5759C125.348 14.2353 125.362 13.8864 125.447 13.5515C125.532 13.2166 125.686 12.9031 125.899 12.6312C126.112 12.3592 126.379 12.1348 126.684 11.9723C126.989 11.8098 127.324 11.7128 127.669 11.6875H128.046C129.68 11.6875 130.557 12.8174 130.557 14.5759V14.9525H126.536C126.412 15.8422 127.04 16.462 127.921 16.5865H128.046C128.547 16.7141 129.175 16.3345 129.427 15.9579L130.557 15.8333ZM126.664 14.0747H129.552C129.563 13.7135 129.441 13.3607 129.21 13.0828C128.979 12.8048 128.655 12.6208 128.298 12.5653H128.17C127.97 12.5578 127.77 12.5917 127.584 12.6649C127.398 12.7382 127.229 12.8492 127.087 12.9909C126.946 13.1326 126.835 13.3021 126.762 13.4886C126.689 13.6751 126.656 13.8747 126.664 14.0747Z" fill="white"/>
</g>
<defs>
<clipPath id="clip0_40_2498">
<rect width="148.276" height="48" fill="white"/>
</clipPath>
</defs>
</svg>
