<svg width="80" height="80" viewBox="0 0 80 80" fill="none" xmlns="http://www.w3.org/2000/svg">
<g clip-path="url(#clip0_50_5537)">
<path opacity="0.71" d="M40 80C62.0914 80 80 62.0914 80 40C80 17.9086 62.0914 0 40 0C17.9086 0 0 17.9086 0 40C0 62.0914 17.9086 80 40 80Z" fill="#EEEEEE"/>
<path d="M39.9984 76.2052C59.9941 76.2052 76.2038 59.9955 76.2038 39.9998C76.2038 20.0041 59.9941 3.79443 39.9984 3.79443C20.0027 3.79443 3.79297 20.0041 3.79297 39.9998C3.79297 59.9955 20.0027 76.2052 39.9984 76.2052Z" fill="url(#paint0_radial_50_5537)"/>
<path d="M26.5352 34.5047C26.5352 38.4393 29.7229 41.6271 33.6575 41.6271C37.5922 41.6271 40.7799 38.4393 40.7799 34.5047C40.7799 30.5701 37.5922 27.3823 33.6575 27.3823C29.7229 27.3823 26.5352 30.5701 26.5352 34.5047Z" fill="url(#paint1_linear_50_5537)"/>
<path d="M46.3897 53.2177C46.9232 50.8769 45.8562 42.9076 43.3087 41.5271C42.415 41.0403 41.2746 40.6868 40.0542 40.4334C38.4604 42.154 36.1863 43.2277 33.6588 43.2277C31.1313 43.2277 28.8505 42.1473 27.2633 40.4268C26.0362 40.6802 24.8892 41.0403 23.9889 41.5271C21.4347 42.9076 20.3743 50.8836 20.9078 53.2177C21.4414 55.5585 25.4627 57.7859 33.6521 57.7859C41.8415 57.7859 45.8628 55.5518 46.3963 53.2177H46.3897Z" fill="url(#paint2_linear_50_5537)"/>
<path d="M42.4217 34.4913C42.3283 34.7847 42.4017 35.0915 42.6084 35.3049C42.7618 35.4583 42.9619 35.5383 43.1686 35.5383C43.2553 35.5383 43.3353 35.525 43.422 35.4916L46.3963 34.5046C47.5901 35.1782 48.9238 35.5383 50.2976 35.5383C54.6591 35.5383 58.2069 31.9838 58.2069 27.6223C58.2069 23.2542 54.6524 19.6997 50.2976 19.6997C45.9295 19.6997 42.375 23.2542 42.375 27.6223C42.375 28.9895 42.7284 30.3232 43.4087 31.517L42.4217 34.4913Z" fill="url(#paint3_linear_50_5537)"/>
</g>
<defs>
<radialGradient id="paint0_radial_50_5537" cx="0" cy="0" r="1" gradientUnits="userSpaceOnUse" gradientTransform="translate(25.1534 12.0105) scale(140.66)">
<stop stop-color="white"/>
<stop offset="1" stop-color="#C95623" stop-opacity="0.2"/>
</radialGradient>
<linearGradient id="paint1_linear_50_5537" x1="25.5482" y1="18.8662" x2="54.6112" y2="74.9515" gradientUnits="userSpaceOnUse">
<stop stop-color="#FE970F"/>
<stop offset="1" stop-color="#C95623"/>
</linearGradient>
<linearGradient id="paint2_linear_50_5537" x1="19.254" y1="22.1273" x2="48.3236" y2="78.2127" gradientUnits="userSpaceOnUse">
<stop stop-color="#FE970F"/>
<stop offset="1" stop-color="#C95623"/>
</linearGradient>
<linearGradient id="paint3_linear_50_5537" x1="41.9615" y1="18.0458" x2="72.1116" y2="61.5603" gradientUnits="userSpaceOnUse">
<stop stop-color="#FE970F"/>
<stop offset="1" stop-color="#C95623"/>
</linearGradient>
<clipPath id="clip0_50_5537">
<rect width="80" height="80" fill="white"/>
</clipPath>
</defs>
</svg>
