<svg width="24" height="24" viewBox="0 0 24 24" fill="none" xmlns="http://www.w3.org/2000/svg">
<path fill-rule="evenodd" clip-rule="evenodd" d="M14.2512 5.15517C14.4031 4.78953 14.5739 4.43404 14.7543 4.07856C14.7923 4.00746 14.8303 3.99731 14.9062 4.00747C16.2068 4.29186 17.4978 4.71843 18.7889 5.23643C18.8649 5.2669 18.9503 5.32784 18.9978 5.39894C21.0198 8.66943 22.3204 12.4376 21.9312 17.1503C21.9217 17.323 21.8932 17.3535 21.7698 17.4449C20.2888 18.5621 18.7225 19.4559 17.0042 19.9739C16.8334 20.0349 16.7764 19.9841 16.7005 19.8724C16.3587 19.334 16.0454 18.7754 15.7416 18.2168C16.3397 17.973 16.9093 17.6887 17.4124 17.3535L17.0137 16.9878C15.922 17.709 14.0803 18.1863 12.0013 18.1863C9.92232 18.1863 8.08062 17.709 6.9889 16.9878L6.5902 17.3535C7.09334 17.6887 7.66294 17.9629 8.26101 18.2168C7.95723 18.7754 7.65344 19.334 7.30219 19.8724C7.22625 19.9841 7.17877 20.0247 6.9984 19.9739C5.28014 19.4559 3.7138 18.5723 2.23287 17.4449C2.11895 17.3535 2.08094 17.323 2.07144 17.1503C1.67273 12.4274 2.98281 8.65927 5.00486 5.39894C5.04283 5.32784 5.13774 5.2669 5.21368 5.23643C6.50475 4.71843 7.79585 4.29186 9.09642 4.00747C9.18185 3.98715 9.21031 4.00746 9.24828 4.07856C9.42865 4.43404 9.59956 4.78953 9.75145 5.15517C10.416 5.03329 11.1849 4.96221 12.0013 4.96221C12.8177 4.96221 13.5867 5.03329 14.2512 5.15517ZM8.67871 10.7414C7.70092 10.7414 6.90349 11.6758 6.90349 12.8337C6.90349 13.9916 7.70092 14.926 8.67871 14.926C9.65651 14.926 10.4539 13.9916 10.4539 12.8337C10.4539 11.6758 9.65651 10.7414 8.67871 10.7414ZM15.3334 10.7414C14.3556 10.7414 13.5582 11.6758 13.5582 12.8337C13.5582 13.9916 14.3556 14.926 15.3334 14.926C16.3112 14.926 17.1087 13.9916 17.1087 12.8337C17.1087 11.6758 16.3112 10.7414 15.3334 10.7414Z" fill="#7A828D"/>
</svg>
