<svg width="149" height="48" viewBox="0 0 149 48" fill="none" xmlns="http://www.w3.org/2000/svg">
<path d="M143.289 0H5.51111C2.46741 0 0 2.68629 0 6V42C0 45.3137 2.46741 48 5.51111 48H143.289C146.333 48 148.8 45.3137 148.8 42V6C148.8 2.68629 146.333 0 143.289 0Z" fill="#585858"/>
<path d="M52.2697 13.0687C52.2878 13.4794 52.2239 13.8896 52.0818 14.2746C51.9397 14.6595 51.7225 15.0113 51.443 15.3087C51.1299 15.6372 50.752 15.8948 50.3342 16.0646C49.9163 16.2345 49.4678 16.3127 49.0181 16.2943C48.5659 16.3045 48.1163 16.2203 47.6973 16.047C47.2783 15.8736 46.8988 15.6147 46.5822 15.2863C46.2557 14.9643 45.998 14.5772 45.8255 14.1494C45.6529 13.7216 45.569 13.2621 45.5792 12.7999C45.5675 12.3357 45.6506 11.8742 45.8232 11.4443C45.9959 11.0144 46.2543 10.6256 46.5822 10.3023C47.0733 9.81472 47.6952 9.4855 48.3698 9.35597C49.0444 9.22645 49.7416 9.3024 50.3739 9.57427C50.7713 9.74029 51.1259 9.99706 51.41 10.3247L50.8258 10.9183C50.6069 10.6503 50.3296 10.4379 50.0158 10.298C49.702 10.158 49.3604 10.0943 49.0181 10.1119C48.6739 10.1102 48.3328 10.1791 48.0153 10.3146C47.6979 10.4501 47.4107 10.6493 47.1709 10.9003C46.931 11.1513 46.7436 11.4489 46.6197 11.7753C46.4958 12.1018 46.4381 12.4502 46.45 12.7999C46.4427 13.3219 46.5879 13.8345 46.867 14.2729C47.1461 14.7112 47.5467 15.0558 48.0184 15.263C48.49 15.4703 49.0114 15.531 49.517 15.4375C50.0225 15.3439 50.4894 15.1004 50.8589 14.7375C51.1987 14.3635 51.3978 13.8796 51.421 13.3711H49.0181V12.5647H52.2256C52.2503 12.7316 52.265 12.8999 52.2697 13.0687Z" fill="white" stroke="white" stroke-width="0.2" stroke-miterlimit="10"/>
<path d="M57.3162 10.2683H54.3402V12.3963H57.0517V13.2027H54.3402V15.3307H57.3162V16.1595H53.4805V9.43945H57.3162V10.2683Z" fill="white" stroke="white" stroke-width="0.2" stroke-miterlimit="10"/>
<path d="M60.9309 16.1599H60.0822V10.2687H58.2305V9.43994H62.8267V10.2687H60.9309V16.1599Z" fill="white" stroke="white" stroke-width="0.2" stroke-miterlimit="10"/>
<path d="M66.0703 16.1595V9.43945H66.919V16.1595H66.0703Z" fill="white" stroke="white" stroke-width="0.2" stroke-miterlimit="10"/>
<path d="M70.6848 16.1595H69.8361V10.2683H67.9844V9.43945H72.5255V10.2683H70.6848V16.1595Z" fill="white" stroke="white" stroke-width="0.2" stroke-miterlimit="10"/>
<path d="M81.1339 15.2861C80.8156 15.6098 80.4376 15.8667 80.0215 16.0419C79.6054 16.2171 79.1594 16.3073 78.709 16.3073C78.2586 16.3073 77.8127 16.2171 77.3966 16.0419C76.9805 15.8667 76.6025 15.6098 76.2841 15.2861C75.9636 14.9612 75.712 14.5729 75.5452 14.1452C75.3784 13.7175 75.2997 13.2595 75.3142 12.7997C75.2997 12.3399 75.3784 11.8819 75.5452 11.4542C75.712 11.0265 75.9636 10.6382 76.2841 10.3133C76.5956 9.98043 76.9724 9.71771 77.3901 9.54215C77.8078 9.36658 78.2572 9.28207 78.709 9.29409C79.1603 9.28684 79.6082 9.37352 80.0252 9.5488C80.4423 9.72409 80.8196 9.98426 81.1339 10.3133C81.4509 10.6409 81.7 11.0297 81.8666 11.4567C82.0332 11.8838 82.1139 12.3404 82.1039 12.7997C82.1183 13.2595 82.0397 13.7175 81.8729 14.1452C81.706 14.5729 81.4545 14.9612 81.1339 15.2861ZM76.9124 14.7261C77.1472 14.9679 77.4269 15.1599 77.7354 15.2909C78.0438 15.4219 78.3747 15.4894 78.709 15.4894C79.0433 15.4894 79.3743 15.4219 79.6827 15.2909C79.9911 15.1599 80.2708 14.9679 80.5057 14.7261C80.7498 14.4719 80.9411 14.1703 81.0679 13.8393C81.1948 13.5083 81.2547 13.1547 81.2441 12.7997C81.249 12.4415 81.1821 12.086 81.0476 11.7548C80.9131 11.4237 80.7137 11.1237 80.4616 10.8733C80.2268 10.6315 79.947 10.4395 79.6386 10.3085C79.3302 10.1775 78.9992 10.11 78.6649 10.11C78.3307 10.11 77.9997 10.1775 77.6913 10.3085C77.3829 10.4395 77.1031 10.6315 76.8683 10.8733C76.6321 11.1312 76.4489 11.4344 76.3297 11.7652C76.2104 12.0961 76.1575 12.4478 76.1739 12.7997C76.1633 13.1547 76.2232 13.5083 76.3501 13.8393C76.477 14.1703 76.6682 14.4719 76.9124 14.7261Z" fill="white" stroke="white" stroke-width="0.2" stroke-miterlimit="10"/>
<path d="M83.3047 16.1595V9.43945H84.3298L87.5482 14.6699V13.3707V9.43945H88.3969V16.1595H87.5152L84.1534 10.6827V11.9707V16.1595H83.3047Z" fill="white" stroke="white" stroke-width="0.2" stroke-miterlimit="10"/>
<path d="M75.1051 25.96C74.1765 25.9622 73.2693 26.2442 72.4983 26.7703C71.7274 27.2965 71.1273 28.043 70.7739 28.9157C70.4205 29.7884 70.3298 30.7479 70.5131 31.673C70.6964 32.5981 71.1456 33.4472 71.8038 34.1129C72.462 34.7786 73.2997 35.231 74.2109 35.4129C75.1222 35.5948 76.0661 35.4981 76.9232 35.1349C77.7804 34.7718 78.5123 34.1585 79.0264 33.3726C79.5405 32.5868 79.8138 31.6637 79.8116 30.72C79.8206 30.0905 79.7048 29.4656 79.4712 28.8825C79.2376 28.2994 78.8909 27.77 78.4518 27.3259C78.0126 26.8817 77.49 26.5319 76.9151 26.2973C76.3401 26.0626 75.7246 25.9479 75.1051 25.96ZM75.1051 33.6096C74.5359 33.6501 73.9679 33.5156 73.4749 33.2237C72.9819 32.9317 72.5867 32.4958 72.3408 31.9727C72.0948 31.4495 72.0094 30.8633 72.0957 30.2901C72.182 29.717 72.436 29.1835 72.8246 28.759C73.2132 28.3344 73.7186 28.0385 74.2749 27.9097C74.8312 27.7809 75.4129 27.8251 75.9441 28.0366C76.4754 28.2481 76.9318 28.6171 77.2539 29.0957C77.5761 29.5743 77.7491 30.1402 77.7505 30.72C77.7682 31.0874 77.7134 31.4547 77.5892 31.8002C77.4651 32.1457 77.2741 32.4624 77.0276 32.7317C76.781 33.0011 76.4839 33.2175 76.1537 33.3683C75.8236 33.519 75.467 33.6011 75.1051 33.6096ZM64.8324 25.96C63.9037 25.9622 62.9966 26.2442 62.2256 26.7703C61.4547 27.2965 60.8546 28.043 60.5012 28.9157C60.1478 29.7884 60.0571 30.7479 60.2404 31.673C60.4237 32.5981 60.8729 33.4472 61.5311 34.1129C62.1893 34.7786 63.027 35.231 63.9382 35.4129C64.8495 35.5948 65.7934 35.4981 66.6505 35.1349C67.5077 34.7718 68.2396 34.1585 68.7537 33.3726C69.2678 32.5868 69.5411 31.6637 69.5389 30.72C69.5479 30.0905 69.4321 29.4656 69.1985 28.8825C68.9649 28.2994 68.6182 27.77 68.1791 27.3259C67.7399 26.8817 67.2173 26.5319 66.6424 26.2973C66.0674 26.0626 65.4519 25.9479 64.8324 25.96ZM64.8324 33.6096C64.2632 33.6501 63.6952 33.5156 63.2022 33.2237C62.7092 32.9317 62.314 32.4958 62.0681 31.9727C61.8221 31.4495 61.7367 30.8633 61.823 30.2901C61.9093 29.717 62.1632 29.1835 62.5519 28.759C62.9405 28.3344 63.4459 28.0385 64.0022 27.9097C64.5585 27.7809 65.1401 27.8251 65.6714 28.0366C66.2027 28.2481 66.6591 28.6171 66.9812 29.0957C67.3034 29.5743 67.4764 30.1402 67.4778 30.72C67.4955 31.0874 67.4407 31.4547 67.3165 31.8002C67.1924 32.1457 67.0014 32.4624 66.7549 32.7317C66.5083 33.0011 66.2112 33.2175 65.881 33.3683C65.5508 33.519 65.1943 33.6011 64.8324 33.6096ZM52.6198 27.4272V29.4432H57.3814C57.3067 30.3928 56.9183 31.2888 56.2792 31.9856C55.8015 32.4801 55.2271 32.8672 54.5929 33.1219C53.9587 33.3766 53.279 33.4931 52.5978 33.464C51.1946 33.464 49.8489 32.8976 48.8567 31.8894C47.8645 30.8812 47.3071 29.5138 47.3071 28.088C47.3071 26.6622 47.8645 25.2948 48.8567 24.2866C49.8489 23.2784 51.1946 22.712 52.5978 22.712C53.943 22.6917 55.2419 23.2108 56.213 24.1568L57.6129 22.7344C56.9559 22.0742 56.1759 21.5538 55.3185 21.2038C54.4612 20.8538 53.5437 20.6812 52.6198 20.696C51.6399 20.6573 50.6624 20.8199 49.7459 21.1742C48.8294 21.5285 47.9926 22.0672 47.2859 22.758C46.5791 23.4487 46.0169 24.2773 45.6328 25.1942C45.2487 26.111 45.0508 27.0972 45.0508 28.0936C45.0508 29.0901 45.2487 30.0763 45.6328 30.9931C46.0169 31.9099 46.5791 32.7385 47.2859 33.4293C47.9926 34.1201 48.8294 34.6587 49.7459 35.013C50.6624 35.3673 51.6399 35.53 52.6198 35.4912C53.5627 35.5295 54.5028 35.3647 55.3786 35.0076C56.2543 34.6505 57.0458 34.1092 57.701 33.4192C58.8585 32.1272 59.4753 30.4279 59.4205 28.6816C59.4245 28.2613 59.3913 27.8415 59.3213 27.4272H52.6198ZM102.561 28.9952C102.274 28.1359 101.736 27.3855 101.02 26.8435C100.304 26.3015 99.442 25.9934 98.5494 25.96C97.9465 25.9588 97.3497 26.0833 96.796 26.3257C96.2423 26.5682 95.7435 26.9235 95.3302 27.3696C94.917 27.8157 94.5982 28.3432 94.3936 28.9195C94.189 29.4958 94.1028 30.1086 94.1405 30.72C94.1311 31.7424 94.4474 32.7405 95.0423 33.5651C95.6371 34.3898 96.4785 34.9967 97.4409 35.2954C98.4032 35.594 99.4348 35.5683 100.382 35.2221C101.328 34.8759 102.139 34.2277 102.694 33.3744L101.096 32.2544C100.857 32.6579 100.519 32.9912 100.115 33.221C99.7112 33.4509 99.255 33.5694 98.7919 33.5648C98.3142 33.5849 97.8416 33.4576 97.4364 33.1997C97.0312 32.9419 96.7122 32.5655 96.5213 32.12L102.793 29.488L102.561 28.9952ZM96.1686 30.5856C96.1463 30.2383 96.1925 29.8899 96.3047 29.5611C96.4168 29.2322 96.5926 28.9294 96.8216 28.6706C97.0507 28.4118 97.3283 28.2021 97.6383 28.054C97.9483 27.9059 98.2843 27.8222 98.6266 27.808C98.9805 27.785 99.3333 27.8683 99.641 28.0475C99.9487 28.2268 100.198 28.494 100.357 28.816L96.1686 30.5856ZM91.0763 35.2H93.1375V21.2H91.0763V35.2ZM87.7035 27.024H87.6264C87.3134 26.6779 86.9312 26.4038 86.5053 26.2203C86.0794 26.0368 85.6198 25.948 85.1574 25.96C83.9529 26.0194 82.817 26.5474 81.9852 27.4346C81.1534 28.3218 80.6894 29.5002 80.6894 30.7256C80.6894 31.951 81.1534 33.1294 81.9852 34.0167C82.817 34.9039 83.9529 35.4319 85.1574 35.4912C85.6247 35.5008 86.0883 35.4053 86.5151 35.2117C86.9419 35.0181 87.3214 34.7311 87.6264 34.3712H87.7035V35.0544C87.7035 36.88 86.7446 37.8544 85.2015 37.8544C84.686 37.8429 84.1855 37.676 83.7636 37.3749C83.3416 37.0738 83.0173 36.652 82.8317 36.1632L81.0461 36.9136C81.3762 37.7561 81.9502 38.477 82.6922 38.981C83.4341 39.4849 84.3091 39.7482 85.2015 39.736C87.6154 39.736 89.6104 38.2912 89.6104 34.7744V26.24H87.7035V27.024ZM85.3338 33.6096C84.6116 33.5639 83.9337 33.2401 83.4383 32.7043C82.9428 32.1685 82.667 31.4609 82.667 30.7256C82.667 29.9904 82.9428 29.2828 83.4383 28.747C83.9337 28.2111 84.6116 27.8874 85.3338 27.8416C85.6867 27.8571 86.033 27.9446 86.3521 28.0988C86.6711 28.2531 86.9563 28.471 87.1908 28.7395C87.4252 29.0081 87.6042 29.3218 87.7169 29.662C87.8296 30.0023 87.8738 30.3621 87.8468 30.72C87.8769 31.0792 87.835 31.4408 87.7236 31.7831C87.6122 32.1253 87.4336 32.441 87.1987 32.7112C86.9638 32.9813 86.6774 33.2002 86.3568 33.3546C86.0363 33.509 85.6882 33.5958 85.3338 33.6096ZM112.217 21.2H107.279V35.2H109.34V29.8912H112.217C112.804 29.9341 113.394 29.8536 113.95 29.6546C114.505 29.4556 115.014 29.1425 115.445 28.7348C115.876 28.3271 116.22 27.8335 116.455 27.2848C116.691 26.7361 116.812 26.1441 116.812 25.5456C116.812 24.9472 116.691 24.3552 116.455 23.8065C116.22 23.2578 115.876 22.7642 115.445 22.3564C115.014 21.9487 114.505 21.6356 113.95 21.4367C113.394 21.2377 112.804 21.1571 112.217 21.2ZM112.217 27.92H109.34V23.1488H112.261C112.887 23.1488 113.487 23.4013 113.929 23.8508C114.371 24.3003 114.62 24.91 114.62 25.5456C114.62 26.1813 114.371 26.7909 113.929 27.2404C113.487 27.6899 112.887 27.9424 112.261 27.9424L112.217 27.92ZM124.937 25.9152C124.186 25.8682 123.438 26.0458 122.786 26.426C122.134 26.8062 121.605 27.3723 121.266 28.0544L123.085 28.8272C123.269 28.4906 123.544 28.2152 123.879 28.0343C124.213 27.8534 124.592 27.7748 124.97 27.808C125.231 27.777 125.496 27.7992 125.75 27.8734C126.003 27.9475 126.239 28.0722 126.444 28.24C126.649 28.4079 126.819 28.6156 126.945 28.851C127.07 29.0864 127.148 29.3449 127.174 29.6112V29.7456C126.511 29.3916 125.774 29.2071 125.025 29.208C123.063 29.208 121.057 30.328 121.057 32.3664C121.076 32.7997 121.181 33.2246 121.365 33.6158C121.549 34.0071 121.809 34.3568 122.129 34.6441C122.449 34.9314 122.822 35.1504 123.227 35.2883C123.631 35.4261 124.059 35.4799 124.485 35.4464C125.002 35.4755 125.517 35.3643 125.978 35.1242C126.439 34.8841 126.829 34.5237 127.108 34.08H127.174V35.2H129.158V29.8128C129.158 27.36 127.328 25.9376 124.981 25.9376L124.937 25.9152ZM124.683 33.5872C124.011 33.5872 123.074 33.24 123.074 32.4C123.074 31.28 124.242 30.8992 125.278 30.8992C125.933 30.8828 126.58 31.0453 127.152 31.3696C127.083 31.9779 126.799 32.54 126.353 32.9519C125.907 33.3637 125.33 33.5974 124.727 33.6096L124.683 33.5872ZM136.389 26.24L134.03 32.3104H133.964L131.517 26.24H129.312L132.983 34.7296L130.889 39.4448H133.093L138.681 26.24H136.389ZM117.871 35.2H119.921V21.2H117.871V35.2Z" fill="white"/>
<path d="M11.5062 10.0447C11.1548 10.4861 10.9815 11.0465 11.0212 11.6127V36.3871C10.9837 36.9587 11.1699 37.5223 11.5392 37.9551L11.6164 38.0447L25.2399 24.1679V23.8319L11.5833 9.96631L11.5062 10.0447Z" fill="url(#paint0_linear_40_2480)"/>
<path d="M29.7613 28.7933L25.2422 24.1677V23.8317L29.7613 19.2061L29.8605 19.2733L35.2724 22.3869C36.8155 23.2717 36.8155 24.7277 35.2724 25.6237L29.8825 28.7373L29.7613 28.7933Z" fill="url(#paint1_linear_40_2480)"/>
<path d="M29.8929 28.7376L25.2415 24L11.5078 37.9552C11.8193 38.2369 12.2179 38.399 12.6347 38.4133C13.0514 38.4276 13.4599 38.2933 13.7894 38.0336L29.8929 28.7376Z" fill="url(#paint2_linear_40_2480)"/>
<path d="M29.8929 19.2737L13.7894 9.97774C13.4621 9.71445 13.0539 9.57685 12.6366 9.58914C12.2193 9.60143 11.8196 9.76282 11.5078 10.0449L25.2415 24.0001L29.8929 19.2737Z" fill="url(#paint3_linear_40_2480)"/>
<path opacity="0.2" d="M29.7606 28.6255L13.7894 37.8655C13.4719 38.109 13.085 38.2407 12.6872 38.2407C12.2894 38.2407 11.9025 38.109 11.585 37.8655L11.5078 37.9439L11.585 38.0335C11.9025 38.277 12.2894 38.4087 12.6872 38.4087C13.085 38.4087 13.4719 38.277 13.7894 38.0335L29.8929 28.7375L29.7606 28.6255Z" fill="black"/>
<path opacity="0.12" d="M11.5069 37.7984C11.1529 37.3542 10.9794 36.7892 11.0219 36.2192V36.3872C10.9844 36.9589 11.1706 37.5224 11.54 37.9552L11.6171 37.8768L11.5069 37.7984Z" fill="black"/>
<path opacity="0.12" d="M35.2728 25.456L29.7617 28.6256L29.8609 28.7376L35.2728 25.6128C35.5923 25.4755 35.8694 25.2533 36.075 24.9695C36.2806 24.6856 36.4071 24.3507 36.4412 24C36.3723 24.3187 36.2306 24.6165 36.0277 24.8694C35.8248 25.1223 35.5662 25.3232 35.2728 25.456Z" fill="black"/>
<path opacity="0.25" d="M13.79 10.1342L35.2723 22.5438C35.5657 22.6765 35.8243 22.8774 36.0272 23.1303C36.2301 23.3832 36.3718 23.681 36.4407 23.9998C36.4066 23.649 36.2801 23.3141 36.0745 23.0303C35.8689 22.7465 35.5918 22.5242 35.2723 22.387L13.79 9.97736C12.2579 9.08136 11.0234 9.82056 11.0234 11.6126V11.7806C11.0234 9.98856 12.2579 9.24936 13.79 10.1342Z" fill="white"/>
<defs>
<linearGradient id="paint0_linear_40_2480" x1="24.0274" y1="11.3551" x2="5.23623" y2="29.848" gradientUnits="userSpaceOnUse">
<stop stop-color="#00A0FF"/>
<stop offset="0.01" stop-color="#00A1FF"/>
<stop offset="0.26" stop-color="#00BEFF"/>
<stop offset="0.51" stop-color="#00D2FF"/>
<stop offset="0.76" stop-color="#00DFFF"/>
<stop offset="1" stop-color="#00E3FF"/>
</linearGradient>
<linearGradient id="paint1_linear_40_2480" x1="37.2895" y1="23.9997" x2="10.6267" y2="23.9997" gradientUnits="userSpaceOnUse">
<stop stop-color="#FFE000"/>
<stop offset="0.41" stop-color="#FFBD00"/>
<stop offset="0.78" stop-color="#FFA500"/>
<stop offset="1" stop-color="#FF9C00"/>
</linearGradient>
<linearGradient id="paint2_linear_40_2480" x1="27.3688" y1="26.576" x2="1.88103" y2="51.6482" gradientUnits="userSpaceOnUse">
<stop stop-color="#FF3A44"/>
<stop offset="1" stop-color="#C31162"/>
</linearGradient>
<linearGradient id="paint3_linear_40_2480" x1="8.04683" y1="1.80174" x2="19.4246" y2="12.9989" gradientUnits="userSpaceOnUse">
<stop stop-color="#32A071"/>
<stop offset="0.07" stop-color="#2DA771"/>
<stop offset="0.48" stop-color="#15CF74"/>
<stop offset="0.8" stop-color="#06E775"/>
<stop offset="1" stop-color="#00F076"/>
</linearGradient>
</defs>
</svg>
