<svg width="200" height="200" viewBox="0 0 200 200" fill="none" xmlns="http://www.w3.org/2000/svg">
<path d="M103.504 8C66.2215 8 36 38.2215 36 75.5037C36 112.786 66.2215 143 103.504 143C140.786 143 171.007 112.779 171.007 75.5037C171.007 38.2288 140.786 8 103.504 8ZM98.1346 130.445C67.3468 130.445 42.3914 105.49 42.3914 74.702C42.3914 43.9142 67.3541 18.9515 98.1346 18.9515C128.915 18.9515 153.878 43.9142 153.878 74.6946C153.878 105.475 128.922 130.438 98.1346 130.438V130.445Z" fill="url(#paint0_linear_40_2439)"/>
<path d="M171.009 75.5037C171.009 112.786 140.787 143 103.505 143C102.608 143 101.71 142.978 100.82 142.941C136.86 141.529 165.639 111.881 165.639 75.4963C165.639 39.1114 136.867 9.46363 100.828 8.05884C101.718 8.02206 102.608 8 103.512 8C140.794 8 171.016 38.2215 171.016 75.5037H171.009Z" fill="url(#paint1_linear_40_2439)"/>
<path d="M42.3925 74.7021C42.3925 92.4864 50.7183 108.322 63.6851 118.523C47.6955 108.726 37.0234 91.0889 37.0234 70.9585C37.0234 40.1707 61.9861 15.2153 92.7666 15.2153C105.763 15.2153 117.729 19.6651 127.21 27.123C118.752 21.9378 108.793 18.9516 98.1357 18.9516C67.3479 18.9516 42.3925 43.9143 42.3925 74.6948V74.7021Z" fill="url(#paint2_linear_40_2439)"/>
<mask id="mask0_40_2439" style="mask-type:luminance" maskUnits="userSpaceOnUse" x="47" y="135" width="104" height="51">
<path d="M150.459 185.332H47.1914C47.2213 185.108 47.2512 184.891 47.2885 184.682L47.3035 184.577C47.3707 184.121 47.4454 183.666 47.5201 183.218C47.6023 182.732 47.6919 182.239 47.7815 181.761C47.8562 181.365 47.9384 180.969 48.0206 180.581C48.424 178.653 48.9095 176.763 49.4773 174.911C49.5445 174.679 49.6267 174.448 49.7014 174.224C49.7985 173.917 49.8956 173.618 50.0002 173.312C50.0002 173.305 50.0076 173.29 50.0076 173.282C50.1645 172.812 50.3214 172.349 50.4932 171.885C50.6351 171.497 50.7771 171.108 50.9265 170.728C51.3 169.734 51.7108 168.748 52.1366 167.784C52.1366 167.769 52.1441 167.747 52.1591 167.732C52.1665 167.71 52.1815 167.687 52.1889 167.665C60.8095 148.347 78.454 135.11 98.8176 135.11C124.911 135.11 146.537 156.841 150.436 185.242C150.436 185.279 150.444 185.309 150.451 185.339L150.459 185.332Z" fill="white"/>
</mask>
<g mask="url(#mask0_40_2439)">
<path d="M150.459 185.332H47.1914C47.2213 185.108 47.2512 184.891 47.2885 184.682L47.3035 184.577C47.3707 184.121 47.4454 183.666 47.5201 183.218C47.6023 182.732 47.6919 182.239 47.7815 181.761C47.8562 181.365 47.9384 180.969 48.0206 180.581C48.424 178.653 48.9095 176.763 49.4773 174.911C49.5445 174.679 49.6267 174.448 49.7014 174.224C49.7985 173.917 49.8956 173.618 50.0002 173.312C50.0002 173.305 50.0076 173.29 50.0076 173.282C50.1645 172.812 50.3214 172.349 50.4932 171.885C50.6351 171.497 50.7771 171.108 50.9265 170.728C51.3 169.734 51.7108 168.748 52.1366 167.784C52.1366 167.769 52.1441 167.747 52.1591 167.732C52.1665 167.71 52.1815 167.687 52.1889 167.665C60.8095 148.347 78.454 135.11 98.8176 135.11C124.911 135.11 146.537 156.841 150.436 185.242C150.436 185.279 150.444 185.309 150.451 185.339L150.459 185.332Z" fill="url(#paint3_linear_40_2439)"/>
<path opacity="0.71" d="M79.3636 184.955C84.6427 177.204 83.0014 166.888 75.6975 161.913C68.3937 156.939 58.1933 159.189 52.9141 166.939C47.635 174.69 49.2764 185.006 56.5802 189.98C63.884 194.955 74.0845 192.705 79.3636 184.955Z" fill="#EEEEEE"/>
<path opacity="0.71" d="M78.4066 183.877C83.6857 176.126 82.0443 165.81 74.7405 160.835C67.4367 155.86 57.2362 158.111 51.9571 165.861C46.678 173.612 48.3193 183.927 55.6232 188.902C62.927 193.877 73.1275 191.627 78.4066 183.877Z" fill="#EEEEEE"/>
<path d="M59.1966 173.051C58.2404 169.921 61.4227 166.791 64.3734 168.031C64.4556 168.068 64.5377 168.098 64.6124 168.143C65.9197 168.785 66.7414 170.01 66.9655 171.377C68.2205 170.735 69.7145 170.66 71.0218 171.303C71.104 171.34 71.1787 171.385 71.2534 171.43C74.0323 173.021 73.36 177.383 70.23 178.497L62.9167 181.096C62.2817 181.32 61.6169 180.992 61.4227 180.357L59.1966 173.043V173.051Z" fill="url(#paint4_linear_40_2439)"/>
<path opacity="0.71" d="M104.508 192.562C113.822 190.796 119.853 181.349 117.978 171.463C116.103 161.577 107.032 154.995 97.7172 156.761C88.4026 158.528 82.3717 167.975 84.2468 177.861C86.122 187.747 95.1932 194.329 104.508 192.562Z" fill="#EEEEEE"/>
<path opacity="0.71" d="M102.965 192.47C112.28 190.703 118.31 181.256 116.435 171.37C114.56 161.484 105.489 154.902 96.1743 156.669C86.8596 158.435 80.8287 167.882 82.7039 177.768C84.579 187.654 93.6502 194.236 102.965 192.47Z" fill="#EEEEEE"/>
<path d="M93.6481 177.727C90.548 176.076 90.5853 171.295 93.7676 169.995C93.8572 169.958 93.9469 169.928 94.0365 169.898C95.5156 169.398 97.0694 169.697 98.2796 170.571C98.7427 169.129 99.8184 167.941 101.297 167.441C101.387 167.411 101.477 167.381 101.566 167.358C104.876 166.462 107.684 170.279 106.153 173.499L102.575 181.021C102.261 181.671 101.507 181.933 100.879 181.597L93.6406 177.742L93.6481 177.727Z" fill="url(#paint5_linear_40_2439)"/>
<path opacity="0.71" d="M138.55 192.728C146.496 189.422 150.129 179.992 146.664 171.665C143.2 163.338 133.95 159.268 126.004 162.574C118.059 165.88 114.426 175.31 117.89 183.637C121.354 191.964 130.604 196.034 138.55 192.728Z" fill="#EEEEEE"/>
<path opacity="0.71" d="M139.714 191.952C147.66 188.646 151.293 179.216 147.828 170.889C144.364 162.562 135.114 158.492 127.168 161.798C119.223 165.104 115.59 174.534 119.054 182.861C122.518 191.187 131.768 195.257 139.714 191.952Z" fill="#EEEEEE"/>
<path d="M139.529 176.562C141.187 173.865 138.953 170.205 135.861 170.668C135.779 170.683 135.689 170.698 135.607 170.713C134.217 171.004 133.142 171.953 132.604 173.178C131.573 172.281 130.183 171.863 128.801 172.154C128.719 172.169 128.63 172.192 128.547 172.214C125.544 173.043 125.119 177.272 127.8 179.049L134.068 183.195C134.613 183.554 135.323 183.404 135.659 182.859L139.536 176.562H139.529Z" fill="url(#paint6_linear_40_2439)"/>
</g>
<path opacity="0.71" d="M69.0647 136.226C74.1046 128.827 72.5375 118.979 65.5644 114.229C58.5913 109.479 48.8529 111.627 43.813 119.027C38.7731 126.426 40.3403 136.275 47.3133 141.024C54.2864 145.774 64.0248 143.626 69.0647 136.226Z" fill="#EEEEEE"/>
<path d="M68.1428 135.207C73.1827 127.808 71.6156 117.96 64.6425 113.21C57.6695 108.46 47.931 110.608 42.8912 118.008C37.8513 125.407 39.4184 135.256 46.3915 140.005C53.3645 144.755 63.103 142.607 68.1428 135.207Z" fill="url(#paint7_radial_40_2439)"/>
<path d="M49.8134 124.868C48.9021 121.88 51.935 118.892 54.7587 120.08C54.8334 120.11 54.9156 120.147 54.9903 120.184C56.2378 120.797 57.0221 121.962 57.2388 123.277C58.4415 122.665 59.8608 122.59 61.1083 123.21C61.183 123.247 61.2577 123.285 61.3324 123.329C63.9843 124.846 63.3419 129.014 60.3538 130.082L53.3692 132.562C52.7642 132.779 52.1292 132.465 51.9424 131.86L49.8134 124.876V124.868Z" fill="url(#paint8_linear_40_2439)"/>
<path d="M106.659 39.1861C106.375 39.1188 106.084 39.0591 105.793 39.0068C105.725 38.9918 105.666 38.9844 105.598 38.9694C105.329 38.9171 105.068 38.8723 104.807 38.8275C104.762 38.8275 104.724 38.8126 104.672 38.8051C104.388 38.7603 104.112 38.7154 103.828 38.6781C103.798 38.6706 103.768 38.6706 103.738 38.6632C103.425 38.6183 103.118 38.581 102.797 38.5511C102.468 38.5138 102.14 38.4839 101.811 38.454C101.482 38.4241 101.154 38.4017 100.818 38.3868C100.489 38.3644 100.145 38.3569 99.8165 38.3494C99.4878 38.3419 99.1442 38.3345 98.808 38.3345C81.5744 38.3345 67.172 50.4137 63.5938 66.5641C63.5266 66.848 63.4668 67.1393 63.4145 67.4307C63.3996 67.4979 63.3846 67.5577 63.3771 67.6249C63.3249 67.8938 63.28 68.1553 63.2352 68.4167C63.2277 68.4541 63.2203 68.4989 63.2128 68.5512C63.168 68.8351 63.1232 69.1115 63.0858 69.3953C63.0783 69.4252 63.0709 69.4551 63.0709 69.485C63.026 69.7987 62.9887 70.105 62.9588 70.4262C62.9215 70.7549 62.8916 71.0761 62.8617 71.4123C62.8318 71.741 62.8094 72.0696 62.7945 72.4058C62.7721 72.7345 62.7646 73.0781 62.7571 73.4068C62.7497 73.7355 62.7422 74.0791 62.7422 74.4153C62.7422 94.3456 78.8926 110.496 98.8155 110.496C99.1517 110.496 99.4878 110.496 99.824 110.481C100.153 110.474 100.496 110.459 100.825 110.444C101.154 110.421 101.482 110.406 101.819 110.377C102.087 110.354 102.364 110.332 102.625 110.302C102.797 110.287 102.969 110.264 103.133 110.25C103.335 110.227 103.529 110.197 103.723 110.167C103.761 110.167 103.791 110.167 103.828 110.152C104.112 110.115 104.388 110.07 104.672 110.025C104.717 110.025 104.754 110.01 104.807 110.003C105.075 109.958 105.337 109.913 105.598 109.861C105.666 109.846 105.725 109.839 105.793 109.824C106.084 109.771 106.368 109.712 106.659 109.644C96.059 107.299 87.2144 100.292 82.3887 90.872C79.9385 86.0986 78.5191 80.6977 78.4295 74.9755C78.4295 74.7962 78.4295 74.6095 78.4295 74.4227C78.4295 74.236 78.4295 74.0492 78.4295 73.8699C78.7283 62.8664 87.7448 54.0292 98.8155 54.0292C109.886 54.0292 119.216 63.1578 119.216 74.4227C119.216 85.6877 110.379 94.5174 99.3683 94.8162C116.355 94.5622 130.496 82.5652 134.03 66.5866C131.012 52.9535 120.285 42.2264 106.659 39.2159V39.1861Z" fill="url(#paint9_linear_40_2439)"/>
<path d="M134.897 74.3998C134.897 91.6334 122.818 106.043 106.667 109.614C96.067 107.268 87.2224 100.261 82.3967 90.8416C79.9465 86.0682 78.5271 80.6672 78.4375 74.9451C78.7288 85.7768 87.4465 94.4945 98.2707 94.7858C98.45 94.7858 98.6368 94.7858 98.8235 94.7858C99.0103 94.7858 99.197 94.7858 99.3763 94.7858C116.363 94.5318 130.504 82.5348 134.038 66.5562C134.105 66.84 134.165 67.1314 134.217 67.4227C134.232 67.4899 134.239 67.5497 134.254 67.6169C134.307 67.8858 134.352 68.1473 134.396 68.4087C134.396 68.4536 134.411 68.4909 134.419 68.5432C134.464 68.8271 134.508 69.1035 134.546 69.3873C134.553 69.4172 134.553 69.4471 134.561 69.477C134.605 69.7907 134.643 70.097 134.673 70.4182C134.71 70.7469 134.74 71.0681 134.77 71.4043C134.8 71.733 134.822 72.0616 134.837 72.3978C134.859 72.7265 134.867 73.0701 134.874 73.3988C134.882 73.7275 134.889 74.0711 134.889 74.4073L134.897 74.3998Z" fill="url(#paint10_linear_40_2439)"/>
<path d="M106.659 109.614C106.375 109.681 106.084 109.741 105.793 109.793C105.725 109.808 105.666 109.816 105.598 109.831C105.329 109.883 105.068 109.928 104.807 109.973C104.762 109.973 104.724 109.988 104.672 109.995C104.388 110.04 104.112 110.085 103.828 110.122C103.791 110.129 103.761 110.137 103.723 110.137C103.529 110.167 103.327 110.189 103.133 110.219C102.969 110.241 102.797 110.256 102.625 110.271C102.356 110.301 102.087 110.324 101.819 110.346C101.49 110.376 101.161 110.398 100.825 110.413C100.496 110.436 100.153 110.443 99.824 110.451C99.4953 110.458 99.1517 110.466 98.8155 110.466C78.8926 110.466 62.7422 94.3152 62.7422 74.3848C62.7422 74.0487 62.7422 73.7125 62.7571 73.3763C62.7646 73.0477 62.7795 72.704 62.7945 72.3753C62.8169 72.0467 62.8318 71.718 62.8617 71.3818C62.8841 71.0531 62.914 70.7244 62.9588 70.3958C62.9887 70.082 63.026 69.7683 63.0709 69.4545C63.0709 69.4246 63.0709 69.3948 63.0858 69.3649C63.1232 69.081 63.168 68.8046 63.2128 68.5207C63.2128 68.4759 63.2203 68.4311 63.2352 68.3863C63.28 68.1174 63.3249 67.8559 63.3771 67.5945C63.3846 67.5272 63.3996 67.4675 63.4145 67.4002C63.4668 67.1089 63.5266 66.825 63.5938 66.5337C65.9394 77.1413 72.9539 85.9859 82.3737 90.8191C87.1994 100.239 96.0441 107.246 106.644 109.592L106.659 109.614Z" fill="url(#paint11_linear_40_2439)"/>
<path d="M106.659 109.614C106.375 109.681 106.084 109.741 105.793 109.793C105.725 109.808 105.666 109.816 105.598 109.831C105.329 109.883 105.068 109.928 104.807 109.973C104.762 109.973 104.724 109.988 104.672 109.995C104.388 110.04 104.112 110.085 103.828 110.122C103.791 110.13 103.761 110.137 103.723 110.137C103.529 110.167 103.327 110.189 103.133 110.219C102.969 110.242 102.797 110.257 102.625 110.272C102.356 110.301 102.087 110.324 101.819 110.346C101.49 110.376 101.161 110.399 100.825 110.413C100.496 110.436 100.153 110.443 99.824 110.451C99.4953 110.458 99.1517 110.466 98.8155 110.466C78.8926 110.466 62.7422 94.3153 62.7422 74.385C62.7422 74.0488 62.7422 73.7127 62.7571 73.3765C62.7646 73.0478 62.7795 72.7042 62.7945 72.3755C62.8169 72.0468 62.8318 71.7182 62.8617 71.382C62.8841 71.0533 62.914 70.7246 62.9588 70.3959C62.9887 70.0822 63.026 69.7684 63.0709 69.4547C63.0709 69.4248 63.0709 69.3949 63.0858 69.3651C63.1232 69.0812 63.168 68.8048 63.2128 68.5209C63.2128 68.4761 63.2203 68.4313 63.2352 68.3865C63.28 68.1175 63.3249 67.8561 63.3771 67.5946C63.3846 67.5274 63.3996 67.4676 63.4145 67.4004C63.4668 67.1091 63.5266 66.8252 63.5938 66.5339C67.172 50.376 81.5744 38.3042 98.808 38.3042C99.1442 38.3042 99.4804 38.3042 99.8165 38.3191C100.145 38.3266 100.489 38.3416 100.818 38.3565C101.146 38.3789 101.475 38.3938 101.811 38.4237C102.14 38.4461 102.468 38.476 102.797 38.5208C103.111 38.5507 103.425 38.5881 103.738 38.6329C103.768 38.6329 103.798 38.6329 103.828 38.6478C104.112 38.6852 104.388 38.73 104.672 38.7748C104.717 38.7748 104.754 38.7898 104.807 38.7972C105.075 38.842 105.337 38.8869 105.598 38.9392C105.666 38.9541 105.725 38.9616 105.793 38.9765C106.084 39.0288 106.368 39.0886 106.659 39.1558C90.6805 42.6892 78.6909 56.8302 78.4295 73.8173C78.4295 73.9965 78.4295 74.1833 78.4295 74.3701C78.4295 74.5568 78.4295 74.7436 78.4295 74.9228C78.5117 80.645 79.931 86.0384 82.3887 90.8193C87.2144 100.239 96.059 107.246 106.659 109.592V109.614Z" fill="url(#paint12_linear_40_2439)"/>
<path d="M167.467 188.297C167.333 187.662 167.198 187.028 167.056 186.393C166.974 186.004 166.877 185.616 166.787 185.235C166.742 185.033 166.698 184.831 166.645 184.637C166.212 182.837 165.749 181.059 165.226 179.303C165.136 178.982 165.047 178.668 164.95 178.34C164.837 177.951 164.71 177.563 164.591 177.174C164.442 176.696 164.292 176.226 164.135 175.748C164.083 175.568 164.023 175.389 163.956 175.21C163.851 174.881 163.739 174.552 163.627 174.231C163.627 174.194 163.612 174.164 163.59 174.134C163.478 173.79 163.366 173.447 163.239 173.111C163.045 172.573 162.85 172.027 162.649 171.49C162.507 171.109 162.365 170.728 162.215 170.354C162.215 170.332 162.215 170.317 162.193 170.302C162.156 170.19 162.111 170.078 162.059 169.958C161.909 169.57 161.76 169.189 161.603 168.8C161.416 168.315 161.222 167.844 161.02 167.374C160.751 166.731 160.475 166.089 160.199 165.461C159.945 164.879 159.683 164.303 159.414 163.728C159.175 163.198 158.929 162.675 158.675 162.152C158.6 162.003 158.525 161.846 158.443 161.689C158.256 161.293 158.062 160.912 157.86 160.523C157.569 159.941 157.27 159.366 156.964 158.783C156.867 158.604 156.77 158.432 156.68 158.253C156.195 157.334 155.694 156.43 155.179 155.548C155.022 155.279 154.865 155.003 154.708 154.742C154.484 154.353 154.252 153.972 154.021 153.599C153.812 153.24 153.58 152.889 153.363 152.545C153.356 152.523 153.341 152.508 153.326 152.486C153.169 152.232 153.012 151.985 152.855 151.739C152.572 151.29 152.28 150.857 151.996 150.424C151.69 149.961 151.384 149.512 151.063 149.064C150.965 148.915 150.868 148.78 150.764 148.638C150.48 148.228 150.196 147.817 149.897 147.413C149.539 146.913 149.173 146.427 148.807 145.942C148.074 144.971 147.32 144.022 146.551 143.096C145.408 141.706 144.22 140.369 143.002 139.077C142.696 138.763 142.397 138.442 142.083 138.128C139.402 135.371 136.57 132.876 133.612 130.658C133.224 130.366 132.835 130.075 132.439 129.791C132.044 129.507 131.648 129.231 131.252 128.962C130.908 128.723 130.572 128.499 130.228 128.275C128.839 127.356 127.42 126.497 125.978 125.705C125.806 125.608 125.634 125.511 125.462 125.421C124.364 124.831 123.259 124.278 122.131 123.755C121.675 123.546 121.219 123.337 120.756 123.135C120.114 122.852 119.471 122.59 118.829 122.344C118.65 122.269 118.47 122.209 118.298 122.134C118.186 122.097 118.074 122.052 117.962 122.007C116.767 121.552 115.557 121.156 114.339 120.79C114.123 120.723 113.914 120.663 113.697 120.603C112.718 120.319 111.747 120.073 110.761 119.856C110.537 119.804 110.32 119.751 110.104 119.707C109.842 119.654 109.588 119.602 109.327 119.55C108.953 119.475 108.58 119.4 108.199 119.341C108.005 119.303 107.81 119.273 107.616 119.243C107.407 119.206 107.205 119.176 106.996 119.146C106.877 119.124 106.757 119.109 106.638 119.094C106.585 119.087 106.533 119.072 106.481 119.072C106.436 119.072 106.391 119.057 106.346 119.057C106.174 119.027 106.01 119.004 105.838 118.989C105.51 118.945 105.181 118.907 104.86 118.87C104.464 118.825 104.075 118.788 103.672 118.75C103.657 118.75 103.642 118.75 103.635 118.75C103.545 118.743 103.455 118.735 103.373 118.728C103.373 118.728 103.343 118.721 103.328 118.721C103.201 118.713 103.074 118.706 102.955 118.698C102.723 118.676 102.492 118.661 102.26 118.653C102.215 118.653 102.17 118.638 102.126 118.638C102.081 118.638 102.043 118.638 101.991 118.638C101.887 118.631 101.782 118.623 101.677 118.623C101.498 118.616 101.326 118.601 101.147 118.594C101.08 118.594 101.028 118.594 100.96 118.594C100.938 118.594 100.908 118.594 100.886 118.594C100.736 118.594 100.579 118.586 100.43 118.586C100.4 118.586 100.363 118.586 100.333 118.586C100.266 118.579 100.198 118.579 100.131 118.579C100.019 118.579 99.8921 118.579 99.7725 118.579C99.6157 118.579 99.4588 118.579 99.287 118.579C99.2496 118.579 99.2197 118.579 99.1749 118.579H99.16C98.8388 118.579 98.5101 118.579 98.1889 118.601C98.0544 118.601 97.9199 118.601 97.793 118.608C97.5763 118.608 97.3522 118.623 97.1206 118.631C97.0161 118.638 96.904 118.646 96.8069 118.653C96.7546 118.653 96.7023 118.653 96.6425 118.653C96.5977 118.653 96.5529 118.653 96.5081 118.661C96.4633 118.661 96.4259 118.661 96.3736 118.661C96.2989 118.668 96.2242 118.668 96.157 118.683C95.8358 118.698 95.522 118.721 95.2008 118.75C95.1709 118.75 95.1411 118.75 95.1112 118.758C95.1112 118.758 95.0962 118.758 95.0888 118.758C94.5883 118.795 94.0952 118.84 93.5947 118.9C93.5499 118.9 93.5051 118.9 93.4603 118.922C93.1988 118.945 92.9299 118.975 92.6759 119.012C92.4891 119.034 92.3024 119.057 92.1156 119.079C92.0858 119.087 92.0559 119.087 92.0335 119.094C91.6226 119.146 91.2118 119.214 90.8009 119.281C90.6366 119.303 90.4722 119.333 90.3153 119.363C89.897 119.438 89.4861 119.512 89.0678 119.595C89.0305 119.595 88.9857 119.609 88.9483 119.617C88.5001 119.707 88.0668 119.796 87.6186 119.901C87.0808 120.013 86.5429 120.147 86.0051 120.282C85.6465 120.371 85.2879 120.461 84.9368 120.566C84.8248 120.596 84.7127 120.618 84.6007 120.655C84.1749 120.775 83.764 120.894 83.3457 121.029C83.2635 121.051 83.1813 121.081 83.0842 121.111C82.6435 121.245 82.2177 121.387 81.777 121.537C81.7695 121.537 81.7545 121.544 81.7471 121.544C81.2765 121.709 80.7909 121.873 80.3203 122.052C79.8571 122.217 79.394 122.396 78.9383 122.583C78.9159 122.583 78.901 122.59 78.886 122.598C78.4378 122.784 77.9896 122.964 77.5339 123.158C77.504 123.165 77.4816 123.18 77.4592 123.18C77.0035 123.374 76.5479 123.584 76.0997 123.785C75.6963 123.972 75.2854 124.159 74.8745 124.361C74.628 124.48 74.374 124.607 74.1275 124.734C73.8287 124.883 73.5225 125.033 73.2311 125.19C72.9398 125.347 72.641 125.496 72.3496 125.66C71.9985 125.855 71.6474 126.049 71.2963 126.25C71.0722 126.377 70.8481 126.504 70.624 126.631C70.1833 126.885 69.7575 127.147 69.3242 127.416C68.8835 127.685 68.4428 127.961 68.0095 128.245C67.6285 128.484 67.2475 128.738 66.874 128.999C66.7919 129.052 66.7097 129.104 66.62 129.171C66.2316 129.425 65.8506 129.694 65.4696 129.971C65.141 130.21 64.8123 130.449 64.4761 130.695C64.3416 130.785 64.2221 130.889 64.0802 130.987C63.6245 131.33 63.1688 131.674 62.7206 132.04C62.3695 132.309 62.0184 132.585 61.6823 132.869C61.3536 133.145 61.0174 133.422 60.6887 133.706C60.4796 133.885 60.2629 134.064 60.0538 134.251C59.7251 134.527 59.3964 134.819 59.0752 135.11C58.8063 135.357 58.5299 135.603 58.261 135.857C58.1414 135.969 58.0219 136.081 57.9024 136.201C57.6409 136.44 57.3795 136.686 57.1255 136.933C57.0284 137.03 56.9313 137.127 56.8342 137.217C56.1992 137.837 55.5642 138.464 54.9666 139.107C54.7575 139.331 54.5558 139.547 54.3541 139.764C54.1449 139.981 53.9432 140.197 53.749 140.421C53.5622 140.616 53.3829 140.817 53.2037 141.019C52.987 141.258 52.7629 141.504 52.5463 141.751C52.1504 142.207 51.7619 142.662 51.3735 143.126C50.5966 144.052 49.8272 145.001 49.0876 145.972C48.7141 146.457 48.3406 146.943 47.982 147.443C47.6384 147.914 47.2873 148.392 46.9512 148.878C46.8765 148.967 46.8092 149.064 46.7495 149.161C46.5104 149.498 46.2788 149.834 46.0473 150.17C45.853 150.461 45.6513 150.745 45.4646 151.036C45.3525 151.201 45.2405 151.365 45.1434 151.529C44.8969 151.895 44.6578 152.269 44.4262 152.635C44.359 152.732 44.2918 152.829 44.247 152.926C43.9855 153.33 43.739 153.726 43.4999 154.137C43.4327 154.241 43.3655 154.338 43.3132 154.435C43.0592 154.846 42.8052 155.257 42.5662 155.683C42.5214 155.758 42.4765 155.825 42.4392 155.899C42.1703 156.355 41.9088 156.811 41.6623 157.266C41.371 157.774 41.0946 158.29 40.8107 158.805C39.974 160.367 39.1747 161.95 38.4128 163.579C38.1588 164.124 37.9048 164.662 37.6583 165.215C37.4641 165.633 37.2848 166.059 37.098 166.485C37.0159 166.664 36.9412 166.843 36.8665 167.022C36.6498 167.53 36.4407 168.031 36.2315 168.546C36.0522 168.98 35.8729 169.42 35.7011 169.861C35.5667 170.19 35.4471 170.519 35.3201 170.855C35.2678 170.982 35.223 171.101 35.1857 171.213C35.0139 171.639 34.857 172.057 34.7076 172.483C34.5881 172.812 34.4685 173.141 34.3565 173.477C34.2893 173.663 34.222 173.843 34.1623 174.022C34.0129 174.433 33.8784 174.844 33.7365 175.255C33.5422 175.815 33.363 176.368 33.1911 176.928C33.0716 177.286 32.9521 177.66 32.8475 178.019C32.7056 178.459 32.5786 178.9 32.4441 179.348C32.2947 179.834 32.1603 180.327 32.0183 180.82C31.6598 182.097 31.3236 183.382 31.0099 184.682C31.0099 184.697 31.0099 184.712 31.0024 184.727C30.853 185.347 30.7036 185.974 30.5617 186.594C30.4347 187.155 30.3077 187.707 30.1882 188.268C29.9939 189.209 29.9566 190.135 30.0462 191.032C30.0761 191.33 30.1284 191.622 30.1807 191.913C30.1807 191.928 30.1807 191.95 30.1882 191.965C30.2106 192.1 30.2404 192.227 30.2778 192.354C30.3226 192.533 30.3749 192.697 30.4272 192.869C30.4272 192.869 30.4272 192.884 30.4272 192.892C30.4795 193.056 30.5392 193.22 30.6065 193.377C30.726 193.683 30.8605 193.982 31.0099 194.274C32.4516 197.082 35.3201 199.092 38.7489 199.219C38.8087 199.219 38.8685 199.219 38.9282 199.219C38.988 199.219 39.0477 199.219 39.1075 199.219H158.525C164.285 199.219 168.565 193.952 167.467 188.32V188.297ZM47.1902 185.332C47.2201 185.108 47.25 184.891 47.2873 184.682L47.3022 184.577C47.3695 184.122 47.4442 183.666 47.5189 183.218C47.6011 182.732 47.6907 182.239 47.7803 181.761C47.855 181.365 47.9372 180.969 48.0194 180.581C48.4228 178.654 48.9083 176.764 49.4761 174.911C49.5433 174.679 49.6255 174.448 49.7002 174.224C49.7973 173.917 49.8944 173.619 49.999 173.312C49.999 173.305 50.0064 173.29 50.0064 173.282C50.1633 172.812 50.3202 172.349 50.492 171.886C50.6339 171.497 50.7759 171.109 50.9253 170.728C51.2988 169.734 51.7096 168.748 52.1354 167.784C52.1354 167.77 52.1429 167.747 52.1578 167.732C52.1653 167.71 52.1803 167.687 52.1877 167.665C60.8083 148.347 78.4527 135.11 98.8164 135.11C124.91 135.11 146.536 156.841 150.435 185.242C150.435 185.28 150.443 185.309 150.45 185.339H47.1902V185.332Z" fill="url(#paint13_linear_40_2439)"/>
<path d="M167.467 188.297C167.333 187.662 167.198 187.028 167.056 186.393C166.974 186.004 166.877 185.616 166.787 185.235C166.742 185.033 166.698 184.831 166.645 184.637C166.212 182.837 165.749 181.059 165.226 179.303C165.136 178.982 165.047 178.668 164.95 178.34C164.837 177.951 164.71 177.563 164.591 177.174C164.442 176.696 164.292 176.226 164.135 175.748C164.083 175.568 164.023 175.389 163.956 175.21C163.851 174.881 163.739 174.552 163.627 174.231C163.627 174.194 163.612 174.164 163.59 174.134C163.478 173.79 163.366 173.447 163.239 173.111C163.045 172.573 162.85 172.027 162.649 171.49C162.507 171.109 162.365 170.728 162.215 170.354C162.215 170.332 162.215 170.317 162.193 170.302C162.156 170.19 162.111 170.078 162.059 169.958C161.909 169.57 161.76 169.189 161.603 168.8C161.416 168.315 161.222 167.844 161.02 167.374C160.751 166.731 160.475 166.089 160.199 165.461C159.945 164.879 159.683 164.303 159.414 163.728C159.175 163.198 158.929 162.675 158.675 162.152C158.6 162.003 158.525 161.846 158.443 161.689C158.256 161.293 158.062 160.912 157.86 160.523C157.569 159.941 157.27 159.366 156.964 158.783C156.867 158.604 156.77 158.432 156.68 158.253C156.195 157.334 155.694 156.43 155.179 155.548C155.022 155.279 154.865 155.003 154.708 154.742C154.484 154.353 154.252 153.972 154.021 153.599C153.812 153.24 153.58 152.889 153.363 152.545C153.356 152.523 153.341 152.508 153.326 152.486C153.169 152.232 153.012 151.985 152.855 151.739C152.572 151.29 152.28 150.857 151.996 150.424C151.69 149.961 151.384 149.512 151.063 149.064C150.965 148.915 150.868 148.78 150.764 148.638C150.48 148.228 150.196 147.817 149.897 147.413C149.539 146.913 149.173 146.427 148.807 145.942C148.074 144.971 147.32 144.022 146.551 143.096C145.408 141.706 144.22 140.369 143.002 139.077C142.696 138.763 142.397 138.442 142.083 138.128C139.402 135.371 136.57 132.876 133.612 130.658C133.224 130.366 132.835 130.075 132.439 129.791C132.044 129.507 131.648 129.231 131.252 128.962C130.908 128.723 130.572 128.499 130.228 128.275C128.839 127.356 127.42 126.497 125.978 125.705C125.806 125.608 125.634 125.511 125.462 125.421C124.364 124.831 123.259 124.278 122.131 123.755C121.675 123.546 121.219 123.337 120.756 123.135C120.114 122.852 119.471 122.59 118.829 122.344C118.65 122.269 118.47 122.209 118.298 122.134C118.186 122.097 118.074 122.052 117.962 122.007C116.767 121.552 115.557 121.156 114.339 120.79C114.123 120.723 113.914 120.663 113.697 120.603C112.718 120.319 111.747 120.073 110.761 119.856C110.537 119.804 110.32 119.751 110.104 119.707C109.842 119.654 109.588 119.602 109.327 119.55C108.953 119.475 108.58 119.4 108.199 119.341C108.005 119.303 107.81 119.273 107.616 119.243C107.407 119.206 107.205 119.176 106.996 119.146C106.877 119.124 106.757 119.109 106.638 119.094C106.585 119.087 106.533 119.072 106.481 119.072C106.436 119.072 106.391 119.057 106.346 119.057C106.174 119.027 106.01 119.004 105.838 118.989C105.51 118.945 105.181 118.907 104.86 118.87C104.464 118.825 104.075 118.788 103.672 118.75C103.657 118.75 103.642 118.75 103.635 118.75C103.545 118.743 103.455 118.735 103.373 118.728C103.373 118.728 103.343 118.721 103.328 118.721C103.201 118.713 103.074 118.706 102.955 118.698C102.723 118.676 102.492 118.661 102.26 118.653C102.215 118.653 102.17 118.638 102.126 118.638C102.081 118.638 102.043 118.638 101.991 118.638C101.887 118.631 101.782 118.623 101.677 118.623C101.498 118.616 101.326 118.601 101.147 118.594C101.08 118.594 101.028 118.594 100.96 118.594C100.938 118.594 100.908 118.594 100.886 118.594C100.736 118.594 100.579 118.586 100.43 118.586C100.4 118.586 100.363 118.586 100.333 118.586C100.266 118.579 100.198 118.579 100.131 118.579C100.019 118.579 99.8921 118.579 99.7725 118.579C99.6157 118.579 99.4588 118.579 99.287 118.579C99.2496 118.579 99.2197 118.579 99.1749 118.579H99.16C98.8388 118.579 98.5101 118.579 98.1889 118.601C98.0544 118.601 97.9199 118.601 97.793 118.608C97.5763 118.608 97.3522 118.623 97.1206 118.631C97.0161 118.638 96.904 118.646 96.8069 118.653C96.7546 118.653 96.7023 118.653 96.6425 118.653C96.5977 118.653 96.5529 118.653 96.5081 118.661C96.4633 118.661 96.4259 118.661 96.3736 118.661C96.2989 118.668 96.2242 118.668 96.157 118.683C95.8358 118.698 95.522 118.721 95.2008 118.75C95.1709 118.75 95.1411 118.75 95.1112 118.758C95.1112 118.758 95.0962 118.758 95.0888 118.758C94.5883 118.795 94.0952 118.84 93.5947 118.9C93.5499 118.9 93.5051 118.9 93.4603 118.922C93.1988 118.945 92.9299 118.975 92.6759 119.012C92.4891 119.034 92.3024 119.057 92.1156 119.079C92.0858 119.087 92.0559 119.087 92.0335 119.094C91.6226 119.146 91.2118 119.214 90.8009 119.281C90.6366 119.303 90.4722 119.333 90.3153 119.363C89.897 119.438 89.4861 119.512 89.0678 119.595C89.0305 119.595 88.9857 119.609 88.9483 119.617C88.5001 119.707 88.0668 119.796 87.6186 119.901C87.0808 120.013 86.5429 120.147 86.0051 120.282C85.6465 120.371 85.2879 120.461 84.9368 120.566C84.8248 120.596 84.7127 120.618 84.6007 120.655C84.1749 120.775 83.764 120.894 83.3457 121.029C83.2635 121.051 83.1813 121.081 83.0842 121.111C82.6435 121.245 82.2177 121.387 81.777 121.537C81.7695 121.537 81.7545 121.544 81.7471 121.544C81.2765 121.709 80.7909 121.873 80.3203 122.052C79.8571 122.217 79.394 122.396 78.9383 122.583C78.9159 122.583 78.901 122.59 78.886 122.598C78.4378 122.784 77.9896 122.964 77.5339 123.158C77.504 123.165 77.4816 123.18 77.4592 123.18C77.0035 123.374 76.5479 123.584 76.0997 123.785C75.6963 123.972 75.2854 124.159 74.8745 124.361C74.628 124.48 74.374 124.607 74.1275 124.734C73.8287 124.883 73.5225 125.033 73.2311 125.19C72.9398 125.347 72.641 125.496 72.3496 125.66C71.9985 125.855 71.6474 126.049 71.2963 126.25C71.0722 126.377 70.8481 126.504 70.624 126.631C70.1833 126.885 69.7575 127.147 69.3242 127.416C68.8835 127.685 68.4428 127.961 68.0095 128.245C67.6285 128.484 67.2475 128.738 66.874 128.999C66.7919 129.052 66.7097 129.104 66.62 129.171C66.2316 129.425 65.8506 129.694 65.4696 129.971C65.141 130.21 64.8123 130.449 64.4761 130.695C64.3416 130.785 64.2221 130.889 64.0802 130.987C63.6245 131.33 63.1688 131.674 62.7206 132.04C62.3695 132.309 62.0184 132.585 61.6823 132.869C61.3536 133.145 61.0174 133.422 60.6887 133.706C60.4796 133.885 60.2629 134.064 60.0538 134.251C59.7251 134.527 59.3964 134.819 59.0752 135.11C58.8063 135.357 58.5299 135.603 58.261 135.857C58.1414 135.969 58.0219 136.081 57.9024 136.201C57.6409 136.44 57.3795 136.686 57.1255 136.933C57.0284 137.03 56.9313 137.127 56.8342 137.217C56.1992 137.837 55.5642 138.464 54.9666 139.107C54.7575 139.331 54.5558 139.547 54.3541 139.764C54.1449 139.981 53.9432 140.197 53.749 140.421C53.5622 140.616 53.3829 140.817 53.2037 141.019C52.987 141.258 52.7629 141.504 52.5463 141.751C52.1504 142.207 51.7619 142.662 51.3735 143.126C50.5966 144.052 49.8272 145.001 49.0876 145.972C48.7141 146.457 48.3406 146.943 47.982 147.443C47.6384 147.914 47.2873 148.392 46.9512 148.878C46.8765 148.967 46.8092 149.064 46.7495 149.161C46.5104 149.498 46.2788 149.834 46.0473 150.17C45.853 150.461 45.6513 150.745 45.4646 151.036C45.3525 151.201 45.2405 151.365 45.1434 151.529C44.8969 151.895 44.6578 152.269 44.4262 152.635C44.359 152.732 44.2918 152.829 44.247 152.926C43.9855 153.33 43.739 153.726 43.4999 154.137C43.4327 154.241 43.3655 154.338 43.3132 154.435C43.0592 154.846 42.8052 155.257 42.5662 155.683C42.5214 155.758 42.4765 155.825 42.4392 155.899C42.1703 156.355 41.9088 156.811 41.6623 157.266C41.371 157.774 41.0946 158.29 40.8107 158.805C39.974 160.367 39.1747 161.95 38.4128 163.579C38.1588 164.124 37.9048 164.662 37.6583 165.215C37.4641 165.633 37.2848 166.059 37.098 166.485C37.0159 166.664 36.9412 166.843 36.8665 167.022C36.6498 167.53 36.4407 168.031 36.2315 168.546C36.0522 168.98 35.8729 169.42 35.7011 169.861C35.5667 170.19 35.4471 170.519 35.3201 170.855C35.2678 170.982 35.223 171.101 35.1857 171.213C35.0139 171.639 34.857 172.057 34.7076 172.483C34.5881 172.812 34.4685 173.141 34.3565 173.477C34.2893 173.663 34.222 173.843 34.1623 174.022C34.0129 174.433 33.8784 174.844 33.7365 175.255C33.5422 175.815 33.363 176.368 33.1911 176.928C33.0716 177.286 32.9521 177.66 32.8475 178.019C32.7056 178.459 32.5786 178.9 32.4441 179.348C32.2947 179.834 32.1603 180.327 32.0183 180.82C31.6598 182.097 31.3236 183.382 31.0099 184.682C31.0099 184.697 31.0099 184.712 31.0024 184.727C30.853 185.347 30.7036 185.974 30.5617 186.594C30.4347 187.155 30.3077 187.707 30.1882 188.268C29.9939 189.209 29.9566 190.135 30.0462 191.032C30.0761 191.33 30.1284 191.622 30.1807 191.913C30.1807 191.928 30.1807 191.95 30.1882 191.965C30.2106 192.1 30.2404 192.227 30.2778 192.354C30.3226 192.533 30.3749 192.697 30.4272 192.869C30.4272 192.869 30.4272 192.884 30.4272 192.892C30.4795 193.056 30.5392 193.22 30.6065 193.377C30.726 193.683 30.8605 193.982 31.0099 194.274C32.4516 197.082 35.3201 199.092 38.7489 199.219C38.8087 199.219 38.8685 199.219 38.9282 199.219C38.988 199.219 39.0477 199.219 39.1075 199.219H158.525C164.285 199.219 168.565 193.952 167.467 188.32V188.297ZM47.1902 185.332C47.2201 185.108 47.25 184.891 47.2873 184.682L47.3022 184.577C47.3695 184.122 47.4367 183.666 47.5189 183.218C47.6011 182.732 47.6907 182.239 47.7803 181.761C47.855 181.365 47.9297 180.969 48.0194 180.581C48.4228 178.654 48.9083 176.764 49.4761 174.911C49.5433 174.679 49.618 174.455 49.7002 174.224C49.7898 173.917 49.8944 173.619 49.999 173.312C49.999 173.305 50.0064 173.29 50.0064 173.282C50.1633 172.812 50.3202 172.349 50.492 171.886C50.6339 171.497 50.7759 171.109 50.9253 170.728C51.2988 169.734 51.7096 168.748 52.1354 167.784C52.1354 167.77 52.1429 167.747 52.1578 167.732C52.1653 167.71 52.1803 167.687 52.1877 167.665C60.8083 148.347 78.4527 135.11 98.8164 135.11C124.91 135.11 146.536 156.841 150.435 185.242C150.435 185.28 150.443 185.309 150.45 185.339H47.1902V185.332Z" fill="url(#paint14_linear_40_2439)"/>
<path d="M158.526 199.189H39.2501C39.153 199.189 39.041 199.189 38.9438 199.189C38.8841 199.189 38.8243 199.189 38.7646 199.189C35.3432 199.017 32.4822 197.022 31.0255 194.243C30.8761 193.952 30.7416 193.653 30.6221 193.347C30.5623 193.183 30.5026 193.018 30.4428 192.861C30.4428 192.854 30.4428 192.839 30.4428 192.839C30.3905 192.667 30.3382 192.495 30.2934 192.323C30.2561 192.196 30.2262 192.07 30.2038 191.935C30.2038 191.92 30.2038 191.898 30.1963 191.883C30.144 191.591 30.0917 191.293 30.0618 191.001C29.9722 190.105 30.0096 189.179 30.2038 188.237C30.3233 187.677 30.4503 187.124 30.5773 186.564C30.7117 185.944 30.8611 185.316 31.018 184.696C31.018 184.682 31.018 184.667 31.0255 184.652C31.3392 183.352 31.6829 182.067 32.034 180.79C32.1759 180.297 32.3104 179.804 32.4598 179.318C32.5942 178.877 32.7212 178.436 32.8631 177.988C32.9677 177.63 33.0873 177.256 33.2068 176.898C33.3786 176.337 33.5653 175.785 33.7521 175.224C33.8866 174.813 34.021 174.403 34.1779 173.992C34.2377 173.812 34.2974 173.633 34.3721 173.446C34.4842 173.118 34.6037 172.782 34.7232 172.453C34.8726 172.027 35.0295 171.601 35.2013 171.183C35.2387 171.071 35.2835 170.944 35.3358 170.824C35.4628 170.496 35.5898 170.16 35.7167 169.831C35.896 169.39 36.0753 168.949 36.2471 168.516C36.4563 168.001 36.6729 167.5 36.8821 166.992C36.9568 166.813 37.0315 166.634 37.1137 166.454C37.3004 166.029 37.4872 165.603 37.6739 165.184C37.9204 164.639 38.1744 164.094 38.4284 163.548C39.1904 161.927 39.9897 160.336 40.8263 158.775C41.1102 158.26 41.3866 157.744 41.6779 157.236C41.9319 156.781 42.1934 156.317 42.4548 155.869C42.4922 155.794 42.537 155.727 42.5818 155.653C42.8208 155.227 43.0674 154.816 43.3288 154.405C43.3811 154.308 43.4409 154.211 43.5156 154.106C43.7546 153.695 44.0011 153.299 44.2626 152.896C44.3149 152.799 44.3746 152.702 44.4419 152.605C44.6734 152.239 44.9125 151.865 45.159 151.499C45.2561 151.335 45.3682 151.17 45.4802 151.006C45.6744 150.715 45.8687 150.431 46.0629 150.14C46.2945 149.803 46.526 149.467 46.7651 149.131C46.8248 149.034 46.8921 148.937 46.9668 148.847C47.3029 148.362 47.654 147.884 47.9977 147.413C48.3562 146.912 48.7297 146.427 49.1032 145.941C49.8428 144.97 50.6047 144.022 51.3891 143.095C51.7775 142.632 52.166 142.176 52.5619 141.721C52.7785 141.467 53.0027 141.228 53.2193 140.989C53.3986 140.787 53.5779 140.578 53.7646 140.391C53.9663 140.167 54.168 139.95 54.3697 139.734C54.5714 139.517 54.7731 139.3 54.9822 139.076C55.5873 138.434 56.2148 137.806 56.8498 137.186C56.9469 137.089 57.044 136.992 57.1411 136.902C57.3951 136.649 57.6566 136.402 57.918 136.17C58.0301 136.051 58.157 135.939 58.2766 135.827C58.5455 135.573 58.8219 135.326 59.0908 135.08C59.412 134.788 59.7332 134.497 60.0694 134.221C60.2786 134.026 60.4952 133.847 60.7044 133.675C61.0331 133.392 61.3692 133.115 61.6979 132.839C62.0415 132.555 62.3852 132.278 62.7362 132.01C63.1845 131.651 63.6327 131.3 64.0958 130.956C64.2303 130.859 64.3573 130.755 64.4917 130.665C64.8204 130.418 65.1566 130.179 65.4853 129.94C65.8662 129.664 66.2472 129.395 66.6357 129.141C66.7178 129.074 66.8 129.029 66.8896 128.969C67.2631 128.708 67.6441 128.454 68.0251 128.215C68.4584 127.931 68.8991 127.654 69.3399 127.386C69.7731 127.117 70.2064 126.855 70.6397 126.601C70.8638 126.467 71.0879 126.347 71.312 126.22C71.6631 126.018 72.0142 125.824 72.3653 125.63C72.6566 125.466 72.9554 125.316 73.2467 125.159C73.5455 124.995 73.8444 124.853 74.1432 124.704C74.3822 124.577 74.6437 124.45 74.8902 124.33C75.301 124.136 75.7119 123.942 76.1153 123.755C76.571 123.546 77.0266 123.344 77.4748 123.15C77.4972 123.15 77.5197 123.135 77.5495 123.128C78.0052 122.933 78.4534 122.754 78.9016 122.567C78.924 122.567 78.939 122.552 78.9539 122.552C79.4096 122.358 79.8728 122.186 80.3359 122.022C80.8065 121.843 81.2921 121.678 81.7627 121.514C81.7702 121.514 81.7851 121.514 81.7926 121.507C82.2333 121.357 82.6591 121.223 83.0999 121.081C83.197 121.051 83.2791 121.021 83.3613 120.999C83.7796 120.864 84.198 120.745 84.6163 120.625C84.7284 120.588 84.8404 120.565 84.9525 120.535C85.311 120.431 85.6696 120.341 86.0207 120.252C86.5585 120.117 87.0964 119.983 87.6342 119.871C88.0824 119.766 88.5157 119.676 88.9639 119.587C89.0013 119.587 89.0461 119.572 89.0834 119.564C89.5018 119.482 89.9126 119.407 90.331 119.333C90.4953 119.303 90.6522 119.28 90.8165 119.251C91.2274 119.183 91.6382 119.116 92.0491 119.064C92.0715 119.064 92.1014 119.064 92.1313 119.049C92.318 119.026 92.5048 118.997 92.6915 118.982C92.9455 118.944 93.2144 118.914 93.4759 118.892C93.5132 118.877 93.5581 118.877 93.6104 118.87C94.1108 118.817 94.6039 118.765 95.1044 118.728C95.1118 118.728 95.1268 118.728 95.1268 118.728C95.1567 118.72 95.1865 118.72 95.2164 118.72C95.5302 118.698 95.8514 118.668 96.1726 118.653C96.2398 118.645 96.3145 118.645 96.3892 118.631C96.4415 118.631 96.4789 118.631 96.5237 118.631C96.5685 118.631 96.6133 118.623 96.6582 118.623C96.7105 118.623 96.7628 118.623 96.8225 118.623C96.9196 118.623 97.0317 118.616 97.1363 118.601C97.3604 118.593 97.5919 118.578 97.8086 118.578C97.943 118.578 98.07 118.571 98.2045 118.571C98.5257 118.556 98.8544 118.548 99.1756 118.548H99.1906C99.2279 118.548 99.2652 118.548 99.3026 118.548C99.4669 118.548 99.6313 118.548 99.7882 118.548C99.9077 118.548 100.027 118.548 100.147 118.548C100.214 118.548 100.281 118.548 100.348 118.556C100.386 118.556 100.416 118.556 100.446 118.556C100.595 118.556 100.744 118.556 100.901 118.563C100.924 118.563 100.953 118.563 100.976 118.563C101.043 118.563 101.095 118.563 101.163 118.563C101.342 118.571 101.514 118.586 101.693 118.593C101.798 118.593 101.902 118.593 102.007 118.608C102.052 118.608 102.089 118.608 102.141 118.608C102.186 118.608 102.231 118.616 102.276 118.623C102.507 118.631 102.739 118.645 102.97 118.668C103.097 118.675 103.224 118.683 103.344 118.69C103.359 118.69 103.366 118.698 103.389 118.698C103.471 118.698 103.561 118.705 103.65 118.72C103.658 118.72 103.673 118.72 103.688 118.72C104.091 118.758 104.479 118.795 104.875 118.84C105.204 118.877 105.533 118.914 105.854 118.959C106.026 118.974 106.19 118.997 106.362 119.026C106.407 119.026 106.452 119.034 106.496 119.041C106.549 119.041 106.593 119.056 106.653 119.064C106.765 119.086 106.892 119.101 107.012 119.116C104.591 119.482 102.208 120.012 99.8554 120.7C79.3349 126.624 62.0863 144.066 52.1809 167.642C52.1735 167.665 52.1585 167.687 52.1511 167.709C52.1361 167.724 52.1286 167.747 52.1286 167.762C51.7028 168.725 51.292 169.704 50.9185 170.705C50.7691 171.086 50.6271 171.467 50.4852 171.848C50.3134 172.318 50.1565 172.789 49.9997 173.252C49.9997 173.26 49.9997 173.275 49.9922 173.282C49.8951 173.581 49.7905 173.887 49.6934 174.193C49.6187 174.418 49.544 174.649 49.4693 174.881C48.9015 176.733 48.416 178.623 48.0126 180.551C47.9304 180.946 47.8483 181.335 47.7736 181.731C47.6839 182.216 47.5943 182.702 47.5121 183.188C47.4374 183.643 47.3627 184.091 47.2955 184.547L47.2805 184.652C47.2432 184.868 47.2133 185.085 47.1834 185.302H150.458C150.458 185.302 150.451 185.234 150.443 185.204H166.788C166.878 185.593 166.967 185.981 167.057 186.362C167.199 186.997 167.333 187.632 167.468 188.267C168.566 193.9 164.285 199.166 158.526 199.166V199.189Z" fill="url(#paint15_linear_40_2439)"/>
<path opacity="0.71" d="M142.684 156.117C157.77 155.038 169.071 141.186 167.927 125.178C166.782 109.171 153.625 97.0681 138.538 98.1469C123.452 99.2256 112.151 113.077 113.295 129.085C114.44 145.093 127.597 157.195 142.684 156.117Z" fill="#EEEEEE"/>
<path d="M140.254 155.701C155.34 154.622 166.642 140.77 165.497 124.762C164.352 108.755 151.195 96.6521 136.109 97.7309C121.023 98.8096 109.721 112.661 110.866 128.669C112.01 144.677 125.168 156.779 140.254 155.701Z" fill="url(#paint16_radial_40_2439)"/>
<path d="M128.226 130.605C123.624 127.416 124.558 119.848 129.847 118.369C129.989 118.332 130.138 118.294 130.287 118.257C132.723 117.734 135.128 118.496 136.883 120.102C137.892 117.906 139.812 116.218 142.247 115.702C142.396 115.672 142.546 115.643 142.695 115.62C148.111 114.806 151.846 121.38 148.828 126.198L141.776 137.455C141.164 138.434 139.924 138.695 138.99 138.053L128.233 130.605H128.226Z" fill="url(#paint17_linear_40_2439)"/>
<path opacity="0.71" d="M65.4814 39.9793C72.7511 35.0277 74.3836 24.7582 69.1278 17.0418C63.8719 9.3254 53.7179 7.08411 46.4481 12.0357C39.1784 16.9874 37.5459 27.2568 42.8018 34.9732C48.0577 42.6897 58.2117 44.9309 65.4814 39.9793Z" fill="#EEEEEE"/>
<path d="M66.4306 38.9095C73.7003 33.9579 75.3329 23.6884 70.077 15.972C64.8211 8.25557 54.6671 6.01429 47.3974 10.9659C40.1276 15.9175 38.4951 26.187 43.751 33.9034C49.0069 41.6198 59.1609 43.8611 66.4306 38.9095Z" fill="url(#paint18_radial_40_2439)"/>
<path d="M62.8625 23.1251C63.8112 20.01 60.6513 16.895 57.7081 18.1276C57.6259 18.1649 57.5437 18.1948 57.469 18.2396C56.1692 18.8821 55.3475 20.0997 55.1234 21.4593C53.8759 20.8243 52.3893 20.7421 51.0895 21.3846C51.0074 21.4219 50.9327 21.4667 50.858 21.5115C48.094 23.0952 48.7588 27.4428 51.8814 28.5484L59.1648 31.1331C59.7997 31.3572 60.4571 31.0285 60.6513 30.401L62.8699 23.1251H62.8625Z" fill="url(#paint19_linear_40_2439)"/>
<path opacity="0.71" d="M91.6876 155.708C94.5929 149.653 92.2652 142.497 86.4885 139.725C80.7118 136.954 73.6736 139.616 70.7683 145.672C67.863 151.728 70.1908 158.883 75.9675 161.655C81.7442 164.426 88.7823 161.764 91.6876 155.708Z" fill="#EEEEEE"/>
<path opacity="0.71" d="M92.6954 155.966C95.6007 149.91 93.273 142.754 87.4963 139.983C81.7196 137.211 74.6814 139.874 71.7761 145.929C68.8708 151.985 71.1986 159.141 76.9753 161.912C82.752 164.684 89.7901 162.021 92.6954 155.966Z" fill="#EEEEEE"/>
<path d="M85.4122 154.166C87.7279 153.748 88.6542 150.693 86.8688 149.206C86.8165 149.169 86.7717 149.124 86.7194 149.087C85.8678 148.459 84.8071 148.332 83.8584 148.638C83.8434 147.622 83.3877 146.644 82.5361 146.016C82.4839 145.979 82.4316 145.942 82.3793 145.904C80.4296 144.649 77.8673 146.509 78.2109 148.877L79.0177 154.413C79.0849 154.891 79.5257 155.212 79.9963 155.13L85.4122 154.159V154.166Z" fill="url(#paint20_linear_40_2439)"/>
<defs>
<linearGradient id="paint0_linear_40_2439" x1="36" y1="75.5037" x2="171.007" y2="75.5037" gradientUnits="userSpaceOnUse">
<stop stop-color="white"/>
<stop offset="0.23" stop-color="#FE970F"/>
<stop offset="1" stop-color="#C95623"/>
</linearGradient>
<linearGradient id="paint1_linear_40_2439" x1="93.2815" y1="22.3201" x2="153.393" y2="132.71" gradientUnits="userSpaceOnUse">
<stop stop-color="white"/>
<stop offset="0.23" stop-color="#FE970F"/>
<stop offset="1" stop-color="#C95623"/>
</linearGradient>
<linearGradient id="paint2_linear_40_2439" x1="27.006" y1="97.6937" x2="124.981" y2="25.9683" gradientUnits="userSpaceOnUse">
<stop stop-color="white"/>
<stop offset="0.23" stop-color="#FE970F"/>
<stop offset="1" stop-color="#C95623"/>
</linearGradient>
<linearGradient id="paint3_linear_40_2439" x1="150.033" y1="113.872" x2="109.321" y2="164.901" gradientUnits="userSpaceOnUse">
<stop stop-color="white"/>
<stop offset="0.23" stop-color="#FE970F"/>
<stop offset="1" stop-color="#C95623"/>
</linearGradient>
<linearGradient id="paint4_linear_40_2439" x1="81.2671" y1="178.565" x2="95.858" y2="206.268" gradientUnits="userSpaceOnUse">
<stop stop-color="#FE970F"/>
<stop offset="1" stop-color="#C95623"/>
</linearGradient>
<linearGradient id="paint5_linear_40_2439" x1="88.8615" y1="172.242" x2="120.936" y2="182.185" gradientUnits="userSpaceOnUse">
<stop stop-color="#FE970F"/>
<stop offset="1" stop-color="#C95623"/>
</linearGradient>
<linearGradient id="paint6_linear_40_2439" x1="125.894" y1="173.519" x2="105.674" y2="196.352" gradientUnits="userSpaceOnUse">
<stop stop-color="#FE970F"/>
<stop offset="1" stop-color="#C95623"/>
</linearGradient>
<radialGradient id="paint7_radial_40_2439" cx="0" cy="0" r="1" gradientUnits="userSpaceOnUse" gradientTransform="translate(66.8465 111.625) scale(54.5395 54.5395)">
<stop stop-color="white"/>
<stop offset="1" stop-color="#C95623" stop-opacity="0.2"/>
</radialGradient>
<linearGradient id="paint8_linear_40_2439" x1="71.2171" y1="130.328" x2="85.1526" y2="156.777" gradientUnits="userSpaceOnUse">
<stop stop-color="#FE970F"/>
<stop offset="1" stop-color="#C95623"/>
</linearGradient>
<linearGradient id="paint9_linear_40_2439" x1="102.722" y1="94.2784" x2="92.929" y2="44.4451" gradientUnits="userSpaceOnUse">
<stop stop-color="white"/>
<stop offset="0.23" stop-color="#FE970F"/>
<stop offset="1" stop-color="#C95623"/>
</linearGradient>
<linearGradient id="paint10_linear_40_2439" x1="86.565" y1="97.5871" x2="134.008" y2="66.5188" gradientUnits="userSpaceOnUse">
<stop stop-color="white"/>
<stop offset="0.23" stop-color="#FE970F"/>
<stop offset="1" stop-color="#C95623"/>
</linearGradient>
<linearGradient id="paint11_linear_40_2439" x1="72.4086" y1="96.4143" x2="92.8394" y2="83.0427" gradientUnits="userSpaceOnUse">
<stop stop-color="#FE970F"/>
<stop offset="1" stop-color="#C95623"/>
</linearGradient>
<linearGradient id="paint12_linear_40_2439" x1="105.696" y1="47.5821" x2="78.1307" y2="100.067" gradientUnits="userSpaceOnUse">
<stop stop-color="white"/>
<stop offset="0.23" stop-color="#FE970F"/>
<stop offset="1" stop-color="#C95623"/>
</linearGradient>
<linearGradient id="paint13_linear_40_2439" x1="143.092" y1="156.818" x2="78.52" y2="165.282" gradientUnits="userSpaceOnUse">
<stop stop-color="#FE970F"/>
<stop offset="1" stop-color="#C95623"/>
</linearGradient>
<linearGradient id="paint14_linear_40_2439" x1="149.008" y1="216.766" x2="67.8003" y2="151.186" gradientUnits="userSpaceOnUse">
<stop stop-color="#FE970F"/>
<stop offset="1" stop-color="#C95623"/>
</linearGradient>
<linearGradient id="paint15_linear_40_2439" x1="133.254" y1="140.697" x2="71.4987" y2="212.381" gradientUnits="userSpaceOnUse">
<stop stop-color="white"/>
<stop offset="0.23" stop-color="#FE970F"/>
<stop offset="1" stop-color="#C95623"/>
</linearGradient>
<radialGradient id="paint16_radial_40_2439" cx="0" cy="0" r="1" gradientUnits="userSpaceOnUse" gradientTransform="translate(131.47 107.775) scale(65.0724 65.0724)">
<stop stop-color="white"/>
<stop offset="1" stop-color="#C95623" stop-opacity="0.2"/>
</radialGradient>
<linearGradient id="paint17_linear_40_2439" x1="126.896" y1="120.267" x2="175.896" y2="141.952" gradientUnits="userSpaceOnUse">
<stop stop-color="#FE970F"/>
<stop offset="1" stop-color="#C95623"/>
</linearGradient>
<radialGradient id="paint18_radial_40_2439" cx="0" cy="0" r="1" gradientUnits="userSpaceOnUse" gradientTransform="translate(64.5671 7.23253) scale(50.5953 50.5953)">
<stop stop-color="white"/>
<stop offset="1" stop-color="#C95623" stop-opacity="0.2"/>
</radialGradient>
<linearGradient id="paint19_linear_40_2439" x1="64.261" y1="15.3315" x2="49.7342" y2="42.9074" gradientUnits="userSpaceOnUse">
<stop stop-color="#FE970F"/>
<stop offset="1" stop-color="#C95623"/>
</linearGradient>
<linearGradient id="paint20_linear_40_2439" x1="44.9871" y1="121.363" x2="22.2724" y2="121.462" gradientUnits="userSpaceOnUse">
<stop stop-color="#FE970F"/>
<stop offset="1" stop-color="#C95623"/>
</linearGradient>
</defs>
</svg>
