<svg width="200" height="200" viewBox="0 0 200 200" fill="none" xmlns="http://www.w3.org/2000/svg">
<path d="M109.789 137.047L109.561 140.983L122.89 141.746C124.46 141.833 125.655 143.169 125.567 144.723L124.878 156.495C124.79 158.049 123.44 159.233 121.87 159.146L108.542 158.383L108.417 160.453C108.226 163.706 105.409 166.19 102.123 166.001L96.8562 165.696C93.5699 165.507 91.0538 162.719 91.2445 159.465L96.4894 69.7414C96.6802 66.4953 99.497 64.0044 102.783 64.1932L108.05 64.4982C111.336 64.687 113.845 67.4757 113.654 70.7291L110.412 126.183L124.335 126.982C125.575 127.054 126.521 128.107 126.455 129.335L126.081 135.747C126.007 136.974 124.944 137.911 123.704 137.846L109.781 137.047H109.789Z" fill="url(#paint0_linear_40_2443)"/>
<path d="M124.91 156.516L125.597 144.742C125.688 143.188 124.49 141.856 122.92 141.766L105.725 140.781C104.156 140.692 102.81 141.878 102.72 143.432L102.032 155.206C101.941 156.759 103.14 158.092 104.709 158.182L121.904 159.166C123.473 159.256 124.819 158.069 124.91 156.516Z" fill="url(#paint1_linear_40_2443)"/>
<path d="M126.124 135.761L126.499 129.352C126.571 128.122 125.622 127.068 124.381 126.997L105.999 125.945C104.758 125.874 103.693 126.813 103.621 128.042L103.247 134.451C103.175 135.68 104.123 136.734 105.365 136.805L123.746 137.858C124.988 137.929 126.053 136.99 126.124 135.761Z" fill="url(#paint2_linear_40_2443)"/>
<path d="M108.398 138.049L108.171 141.985L121.499 142.747C123.069 142.835 124.265 144.171 124.177 145.725L123.487 157.497C123.399 159.051 122.049 160.235 120.48 160.148L107.151 159.385L107.026 161.455C106.836 164.708 104.019 167.192 100.732 167.003L95.4656 166.698C92.1793 166.509 89.6632 163.721 89.8539 160.467L95.0988 70.7434C95.2895 67.4972 98.1064 65.0063 101.393 65.1951L106.66 65.5001C109.946 65.689 112.455 68.4776 112.264 71.731L109.022 127.185L122.944 127.984C124.184 128.056 125.13 129.109 125.064 130.336L124.69 136.749C124.617 137.976 123.553 138.913 122.313 138.848L108.391 138.049H108.398Z" fill="url(#paint3_linear_40_2443)"/>
<path d="M123.523 157.513L124.211 145.739C124.301 144.186 123.103 142.853 121.534 142.764L104.339 141.779C102.769 141.689 101.424 142.876 101.333 144.429L100.645 156.203C100.554 157.757 101.753 159.089 103.322 159.179L120.517 160.164C122.086 160.253 123.432 159.067 123.523 157.513Z" fill="url(#paint4_linear_40_2443)"/>
<path d="M124.734 136.758L125.108 130.349C125.18 129.12 124.232 128.066 122.99 127.995L104.609 126.942C103.367 126.871 102.302 127.81 102.23 129.039L101.856 135.448C101.784 136.678 102.733 137.732 103.974 137.803L122.356 138.855C123.597 138.926 124.662 137.988 124.734 136.758Z" fill="url(#paint5_linear_40_2443)"/>
<path d="M86.1028 172.181C89.9245 174.606 93.9958 177.417 98.4044 179.915L86.1028 172.181ZM171.781 17.679L111.924 2.88598H111.88L111.396 2.75526C111.285 2.73348 111.175 2.70443 111.058 2.68264C110.992 2.66812 110.933 2.66085 110.867 2.63907C110.596 2.58823 110.339 2.54466 110.068 2.50109C110.024 2.50109 109.98 2.48656 109.936 2.4793C109.65 2.43573 109.371 2.39216 109.085 2.35584C109.056 2.34858 109.026 2.34858 108.997 2.34132C108.681 2.29775 108.373 2.25417 108.051 2.22513C107.72 2.18155 107.39 2.1525 107.06 2.13072C106.723 2.10167 106.4 2.07988 106.063 2.0581C105.733 2.03631 105.388 2.02905 105.058 2.01452C104.728 2.00726 104.383 2 104.045 2C101.61 2 99.2259 2.23239 96.9226 2.6899L96.8639 2.70443L96.1671 2.87146L36.3168 17.6644C31.6881 18.8409 28.4531 22.9731 28.4531 27.7007V142.37C28.4531 150.932 32.8764 158.898 40.1826 163.488L65.5487 179.421L90.5114 195.1C94.6413 197.7 99.3507 198.993 104.053 198.993C108.755 198.993 113.457 197.693 117.587 195.1L142.549 179.421L167.916 163.488C175.222 158.898 179.645 150.932 179.645 142.37V27.7152C179.645 22.9803 176.41 18.8554 171.781 17.679ZM162.451 137.809V142.377C162.451 145.129 161.049 147.649 158.702 149.124L123.11 171.476C122.883 171.622 122.663 171.76 122.443 171.905C122.296 171.999 122.142 172.094 121.995 172.188L109.694 179.922L108.381 180.75C108.256 180.83 108.131 180.903 107.999 180.968C107.742 181.121 107.471 181.244 107.2 181.353C107.126 181.389 107.046 181.418 106.972 181.44C106.95 181.447 106.936 181.462 106.914 181.462C106.811 181.505 106.708 181.549 106.598 181.578C106.598 181.578 106.598 181.578 106.591 181.578C105.762 181.992 104.918 182.399 104.06 182.776C103.202 182.399 102.358 181.992 101.529 181.578C101.529 181.578 101.529 181.578 101.522 181.578C101.412 181.549 101.309 181.505 101.207 181.462C101.185 181.462 101.17 181.455 101.148 181.44C101.075 181.418 100.994 181.382 100.92 181.353C100.649 181.244 100.378 181.121 100.121 180.968C99.9888 180.903 99.8642 180.83 99.7394 180.75L98.4264 179.922L86.1248 172.188C85.9707 172.101 85.824 171.999 85.6773 171.905C85.4572 171.767 85.2372 171.622 85.0098 171.476L49.418 149.124C47.0706 147.649 45.6695 145.129 45.6695 142.377V41.0195C45.6695 36.2628 48.9412 32.1161 53.6065 30.9614L69.4952 27.0326L86.961 22.7189L90.3867 21.8692C91.443 21.6005 92.448 21.1575 93.3723 20.5911C96.4898 18.7029 100.15 17.6136 104.067 17.6136C107.985 17.6136 111.652 18.7029 114.77 20.5911C115.701 21.1575 116.699 21.6005 117.755 21.8692L138.647 27.0326L154.536 30.9614C159.201 32.1161 162.473 36.2628 162.473 41.0195V137.809H162.451Z" fill="url(#paint6_linear_40_2443)"/>
<path d="M179.643 27.715V142.37C179.643 150.932 175.22 158.898 167.914 163.488L142.548 179.421L117.585 195.1C113.455 197.7 108.753 198.992 104.051 198.992C99.3489 198.992 94.6468 197.693 90.5096 195.1L65.5469 179.421C80.9661 189.101 93.4511 187.504 104.044 182.769C104.902 182.391 105.745 181.985 106.574 181.571C106.574 181.571 106.574 181.571 106.582 181.571C106.692 181.542 106.794 181.498 106.897 181.454C106.919 181.454 106.934 181.447 106.956 181.433C107.029 181.411 107.11 181.375 107.183 181.346C107.455 181.237 107.726 181.113 107.983 180.961C108.115 180.895 108.239 180.823 108.364 180.743L109.677 179.915C114.093 177.424 118.164 174.606 121.979 172.181C122.133 172.094 122.28 171.992 122.426 171.897C122.646 171.759 122.866 171.614 123.094 171.469L158.686 149.116C161.033 147.642 162.434 145.122 162.434 142.37V32.9219C162.434 18.0709 127.855 7.13409 111.915 2.88574L171.765 17.6787C176.394 18.8552 179.628 22.9873 179.628 27.715H179.643Z" fill="url(#paint7_linear_40_2443)"/>
<path d="M179.644 39.1674V84.2798C177.678 84.8027 175.609 85.0859 173.482 85.0859C169.499 85.0859 165.736 84.1128 162.449 82.3844V41.0628C165.736 39.3345 169.491 38.3613 173.482 38.3613C175.616 38.3613 177.685 38.6446 179.644 39.1674Z" fill="url(#paint8_linear_40_2443)"/>
<path d="M142.542 179.428L117.579 195.107C113.449 197.707 108.747 199 104.045 199C99.3428 199 94.6408 197.7 90.5036 195.107L65.5409 179.428L40.1748 163.495C33.4921 159.29 29.2082 152.253 28.5407 144.526C28.4746 143.815 28.4453 143.103 28.4453 142.377V27.715C28.4453 22.9801 31.6802 18.8552 36.3089 17.6787L96.1666 2.88574C80.2266 7.13409 45.647 18.0709 45.647 32.9219V142.37C45.647 145.122 47.0481 147.642 49.3955 149.116L84.9873 171.469C85.2147 171.614 85.4347 171.752 85.6548 171.897C85.8015 171.992 85.9556 172.086 86.1023 172.181C89.924 174.606 93.9953 177.417 98.4039 179.915L99.7169 180.743C99.8416 180.823 99.9664 180.895 100.098 180.961C100.355 181.113 100.627 181.237 100.898 181.346C100.971 181.382 101.052 181.411 101.125 181.433C101.147 181.44 101.162 181.454 101.184 181.454C101.287 181.498 101.397 181.534 101.499 181.571C101.499 181.571 101.499 181.571 101.507 181.571C102.336 181.985 103.179 182.391 104.038 182.769C114.63 187.504 127.122 189.101 142.534 179.421L142.542 179.428Z" fill="url(#paint9_linear_40_2443)"/>
<path d="M28.4531 88.6518C30.0229 88.3831 31.6441 88.2451 33.3019 88.2451C37.7252 88.2451 41.9138 89.24 45.6549 91.012V142.137C41.9138 143.917 37.7252 144.904 33.3019 144.904C31.6808 144.904 30.0963 144.766 28.5558 144.512L28.4605 88.6445L28.4531 88.6518Z" fill="url(#paint10_linear_40_2443)"/>
<path d="M104.605 58.2382C121.69 57.984 135.913 46.0378 139.471 30.1264C139.236 29.0807 138.957 28.0495 138.635 27.04C135.18 16.2775 126.744 7.71549 116.005 4.0118C116.005 4.0118 115.997 4.0118 115.99 4.0118C115.477 3.83751 114.948 3.66322 114.42 3.51071C114.42 3.51071 114.413 3.51071 114.406 3.51071C114.398 3.51071 114.406 3.51071 114.398 3.51071C113.591 3.27832 112.777 3.06772 111.948 2.88617C111.772 2.84259 111.596 2.81355 111.42 2.77723C111.31 2.75545 111.2 2.7264 111.083 2.70461C111.017 2.69009 110.958 2.68283 110.892 2.66104C110.621 2.61021 110.364 2.56663 110.092 2.52306C110.048 2.52306 110.004 2.50854 109.96 2.50127C109.674 2.4577 109.395 2.41413 109.109 2.37782C109.08 2.37056 109.051 2.37056 109.021 2.36329C108.706 2.31972 108.398 2.27615 108.075 2.2471C107.745 2.20353 107.415 2.17448 107.085 2.15269C106.747 2.12364 106.425 2.10186 106.087 2.08007C105.757 2.05828 105.412 2.05102 105.082 2.0365C104.752 2.02923 104.407 2.02197 104.07 2.02197C101.635 2.02197 99.2505 2.25436 96.9472 2.71188L96.8885 2.7264C95.8028 2.94426 94.7465 3.19844 93.7049 3.51071C93.7049 3.51071 93.6902 3.51071 93.6829 3.51071C93.6755 3.51071 93.6682 3.51071 93.6608 3.51071C93.1107 3.67048 92.5679 3.84477 92.0324 4.03358C92.0324 4.03358 92.0299 4.03358 92.025 4.03358C81.3299 7.75906 72.9381 16.2993 69.4904 27.0328C69.1677 28.0422 68.8816 29.0734 68.6542 30.1192C68.5882 30.4024 68.5295 30.6929 68.4708 30.9834C68.4561 31.0487 68.4414 31.1068 68.4268 31.1722C68.3754 31.4409 68.3314 31.6951 68.2874 31.9638C68.2801 32.0073 68.2727 32.0509 68.2654 32.0945C68.2214 32.3777 68.1774 32.6537 68.1407 32.9369C68.1333 32.9659 68.126 32.995 68.126 33.024C68.082 33.3363 68.038 33.6413 68.0086 33.9608C67.9646 34.2876 67.9353 34.6144 67.9133 34.9412C67.8839 35.2753 67.862 35.5948 67.8399 35.9289C67.8179 36.2629 67.8106 36.597 67.7959 36.9238C67.7886 37.2579 67.7812 37.5919 67.7812 37.926C67.7812 57.7661 84.0293 73.8518 104.063 73.8518C104.4 73.8518 104.737 73.8518 105.075 73.8372C105.412 73.83 105.75 73.8155 106.08 73.7937C106.417 73.7719 106.74 73.7501 107.077 73.721C107.349 73.6993 107.62 73.6775 107.892 73.6484C108.06 73.6339 108.236 73.6121 108.405 73.5903C108.611 73.5685 108.801 73.5395 108.999 73.5104C109.036 73.5104 109.073 73.5104 109.102 73.4959C109.388 73.4596 109.667 73.416 109.953 73.3725C109.997 73.3725 110.041 73.3579 110.085 73.3507C110.356 73.3071 110.613 73.2635 110.885 73.2127C110.951 73.1982 111.009 73.1909 111.075 73.1691C111.369 73.111 111.655 73.0529 111.948 72.9876C101.29 70.6564 92.3918 63.6775 87.5357 54.2948C85.071 49.5381 83.6406 44.1642 83.5526 38.4706C83.5526 38.2891 83.5526 38.1075 83.5526 37.9187C83.5526 37.7299 83.5526 37.5483 83.5526 37.3668C83.7286 30.8091 87.0442 25.0284 92.069 21.4409C95.4434 19.0299 99.5879 17.6138 104.063 17.6138C108.537 17.6138 112.689 19.0372 116.063 21.4409C121.22 25.1301 124.58 31.1431 124.58 37.9187C124.58 48.9572 115.697 57.9332 104.62 58.2236L104.605 58.2382Z" fill="url(#paint11_linear_40_2443)"/>
<path d="M140.327 37.926C140.327 55.0864 128.179 69.4364 111.931 72.9949C101.272 70.6637 92.3744 63.6848 87.5183 54.3021C85.0536 49.5454 83.6232 44.1714 83.5352 38.4779C83.8286 49.2622 92.6018 57.9477 103.488 58.2382C103.671 58.2382 103.854 58.2382 104.045 58.2382C104.236 58.2382 104.419 58.2382 104.603 58.2382C121.687 57.984 135.911 46.0378 139.468 30.1265C139.534 30.4097 139.593 30.7002 139.652 30.9907C139.666 31.056 139.674 31.1141 139.696 31.1795C139.747 31.4482 139.791 31.7023 139.835 31.971C139.835 32.0146 139.85 32.0582 139.857 32.1018C139.901 32.385 139.945 32.661 139.982 32.9442C139.989 32.9732 139.989 33.0023 139.996 33.0313C140.04 33.3436 140.084 33.6486 140.114 33.9681C140.158 34.2949 140.187 34.6217 140.209 34.9485C140.239 35.2826 140.261 35.6021 140.283 35.9362C140.305 36.2702 140.312 36.6043 140.327 36.9311C140.341 37.2579 140.341 37.5992 140.341 37.9333L140.327 37.926Z" fill="url(#paint12_linear_40_2443)"/>
<path d="M111.933 72.9949C111.647 73.0602 111.353 73.1183 111.06 73.1764C110.994 73.1909 110.935 73.1982 110.869 73.22C110.598 73.2708 110.341 73.3144 110.069 73.358C110.025 73.358 109.981 73.3725 109.937 73.3798C109.651 73.4233 109.373 73.4669 109.086 73.5032C109.05 73.5105 109.013 73.5177 108.984 73.5177C108.786 73.5468 108.588 73.5758 108.39 73.5976C108.221 73.6194 108.052 73.6412 107.876 73.6557C107.605 73.6848 107.333 73.7138 107.062 73.7283C106.724 73.7574 106.402 73.7792 106.064 73.801C105.727 73.8227 105.389 73.83 105.059 73.8445C104.722 73.8518 104.384 73.8591 104.047 73.8591C84.0064 73.8591 67.7656 57.7734 67.7656 37.9333C67.7656 37.5992 67.7656 37.2651 67.7803 36.9311C67.7876 36.597 67.8023 36.263 67.8243 35.9362C67.8463 35.6021 67.8683 35.2826 67.8977 34.9485C67.9197 34.6145 67.9563 34.2949 67.993 33.9681C68.0224 33.6559 68.0664 33.3436 68.1104 33.0313C68.1104 33.0023 68.1104 32.9732 68.1251 32.9442C68.1617 32.661 68.2058 32.385 68.2498 32.1018C68.2498 32.0582 68.2571 32.0146 68.2718 31.971C68.3158 31.7023 68.3598 31.4482 68.4112 31.1795C68.4185 31.1141 68.4332 31.056 68.4552 30.9907C68.5138 30.7002 68.5725 30.417 68.6386 30.1265C71.0006 40.6929 78.0573 49.5018 87.5274 54.3094C92.3835 63.6848 101.282 70.6637 111.94 73.0021L111.933 72.9949Z" fill="url(#paint13_linear_40_2443)"/>
<path d="M111.933 72.9949C111.647 73.0603 111.353 73.1184 111.06 73.1765C110.994 73.191 110.935 73.1982 110.869 73.22C110.598 73.2709 110.341 73.3144 110.069 73.358C110.025 73.358 109.981 73.3725 109.937 73.3798C109.651 73.4234 109.373 73.4669 109.086 73.5033C109.05 73.5105 109.013 73.5178 108.984 73.5178C108.786 73.5468 108.588 73.5759 108.39 73.5977C108.221 73.6194 108.052 73.6412 107.876 73.6558C107.605 73.6848 107.333 73.7138 107.062 73.7284C106.724 73.7574 106.402 73.7792 106.064 73.801C105.734 73.8228 105.389 73.83 105.059 73.8446C104.729 73.8518 104.384 73.8591 104.047 73.8591C84.0064 73.8591 67.7656 57.7735 67.7656 37.9333C67.7656 37.5992 67.7656 37.2652 67.7803 36.9311C67.7876 36.5971 67.8023 36.263 67.8243 35.9362C67.8463 35.6022 67.8683 35.2826 67.8977 34.9486C67.9197 34.6145 67.9563 34.295 67.993 33.9682C68.0224 33.6559 68.0664 33.3436 68.1104 33.0314C68.1104 33.0023 68.1104 32.9733 68.1251 32.9442C68.1617 32.661 68.2058 32.385 68.2498 32.1018C68.2498 32.0582 68.2571 32.0147 68.2718 31.9711C68.3158 31.7024 68.3598 31.4482 68.4112 31.1795C68.4185 31.1142 68.4332 31.0561 68.4552 30.9907C68.5138 30.7002 68.5725 30.417 68.6386 30.1265C68.8733 29.0808 69.152 28.0495 69.4748 27.0401C72.9225 16.3067 81.3143 7.76639 92.0094 4.04091C92.0094 4.04091 92.0119 4.04091 92.0168 4.04091C92.5522 3.85209 93.0951 3.6778 93.6453 3.51804C93.6453 3.51804 93.6599 3.51804 93.6672 3.51804C93.6746 3.51804 93.6819 3.51804 93.6893 3.51804C94.7382 3.20576 95.7945 2.94433 96.8729 2.73372L96.9315 2.7192C99.2349 2.26169 101.612 2.0293 104.054 2.0293C104.392 2.0293 104.729 2.0293 105.067 2.04382C105.404 2.05108 105.741 2.06561 106.072 2.08739C106.409 2.10918 106.732 2.13097 107.069 2.16002C107.407 2.1818 107.729 2.21811 108.059 2.25442C108.375 2.28347 108.69 2.32704 109.006 2.37062C109.035 2.37062 109.064 2.37062 109.094 2.38514C109.38 2.42145 109.659 2.46503 109.945 2.5086C109.989 2.5086 110.033 2.52312 110.077 2.53038C110.348 2.57396 110.605 2.61753 110.876 2.66836C110.942 2.68289 111.001 2.69015 111.067 2.71194C111.184 2.73372 111.294 2.75551 111.404 2.78456C111.581 2.82087 111.757 2.85718 111.933 2.89349C111.918 2.89349 111.903 2.89349 111.889 2.90075C100.812 5.34083 91.6427 12.799 86.9406 22.7409C84.828 27.1999 83.625 32.1672 83.5443 37.4032C83.5443 37.5847 83.5443 37.7663 83.5443 37.9551C83.5443 38.1439 83.5443 38.3255 83.5443 38.507C83.6323 44.2078 85.0554 49.5745 87.5274 54.3312C92.3835 63.7066 101.282 70.6855 111.94 73.0239L111.933 72.9949Z" fill="url(#paint14_linear_40_2443)"/>
<path opacity="0.71" d="M53.8363 124.071C61.3635 110.068 57.0456 93.2262 44.192 86.4545C31.3384 79.6827 14.8165 85.545 7.28934 99.5482C-0.237852 113.551 4.08006 130.393 16.9337 137.165C29.7872 143.936 46.3091 138.074 53.8363 124.071Z" fill="white"/>
<path opacity="0.71" d="M51.0863 123.56C58.6135 109.557 54.2956 92.7154 41.442 85.9437C28.5884 79.172 12.0665 85.0343 4.53934 99.0375C-2.98785 113.041 1.33005 129.882 14.1836 136.654C27.0372 143.426 43.5591 137.563 51.0863 123.56Z" fill="url(#paint15_radial_40_2443)"/>
<path opacity="0.71" d="M196.173 67.8919C201.623 57.1551 196.97 43.9386 185.781 38.3721C174.592 32.8057 161.103 36.9971 155.653 47.734C150.203 58.4708 154.856 71.6873 166.045 77.2538C177.234 82.8203 190.723 78.6288 196.173 67.8919Z" fill="#EEEEEE"/>
<path opacity="0.71" d="M197.251 67.0848C202.701 56.348 198.048 43.1315 186.859 37.565C175.67 31.9986 162.181 36.19 156.731 46.9269C151.281 57.6638 155.934 70.8802 167.123 76.4467C178.312 82.0131 191.801 77.8217 197.251 67.0848Z" fill="url(#paint16_radial_40_2443)"/>
<path d="M173.554 69.7263C166.461 67.889 162.191 60.6777 164.047 53.6552C164.546 51.7743 165.426 50.0677 166.666 48.5863C166.923 48.2812 167.378 48.2377 167.686 48.4918C167.994 48.746 168.038 49.1963 167.781 49.5013C166.673 50.823 165.888 52.3408 165.448 54.0183C163.798 60.2783 167.598 66.7125 173.921 68.3465C175.652 68.7968 177.413 68.8549 179.151 68.5208C179.54 68.4482 179.921 68.7024 179.995 69.0873C180.068 69.4722 179.811 69.8498 179.422 69.9224C177.471 70.2928 175.498 70.2274 173.554 69.7263Z" fill="url(#paint17_linear_40_2443)"/>
<path d="M186.448 65.5943C186.353 65.5653 186.258 65.5217 186.17 65.4564C185.862 65.2022 185.818 64.7519 186.074 64.4542C187.175 63.1397 187.952 61.622 188.392 59.9589C190.043 53.699 186.243 47.2647 179.92 45.6307C178.24 45.195 176.523 45.1296 174.829 45.4274C174.433 45.5 174.059 45.2386 173.993 44.8537C173.919 44.4688 174.183 44.0912 174.572 44.0258C176.479 43.6845 178.401 43.7644 180.287 44.2509C187.38 46.0882 191.649 53.2995 189.793 60.322C189.302 62.1884 188.429 63.8877 187.197 65.362C187.013 65.5871 186.72 65.667 186.456 65.6016L186.448 65.5943Z" fill="url(#paint18_linear_40_2443)"/>
<path d="M168.674 58.5862C168.396 58.5136 168.176 58.2812 168.139 57.9762C168.014 56.9014 168.095 55.8266 168.374 54.7736C169.606 50.104 174.44 47.3008 179.157 48.5209C180.221 48.7968 181.204 49.2543 182.091 49.8861C182.414 50.1185 182.487 50.5615 182.253 50.881C182.018 51.2006 181.57 51.2732 181.248 51.0408C180.507 50.5107 179.685 50.133 178.79 49.9007C174.844 48.8767 170.802 51.2224 169.767 55.1294C169.533 56.0081 169.467 56.9086 169.569 57.8091C169.613 58.2013 169.327 58.5571 168.931 58.6007C168.843 58.608 168.748 58.6007 168.667 58.5789L168.674 58.5862Z" fill="url(#paint19_linear_40_2443)"/>
<path d="M174.685 65.4491C173.731 65.2022 172.829 64.8027 172.014 64.2653C171.684 64.0475 171.596 63.6045 171.816 63.2777C172.036 62.9509 172.484 62.8638 172.814 63.0816C173.496 63.5319 174.244 63.8659 175.044 64.0693C178.99 65.0932 183.032 62.7476 184.067 58.8405C184.279 58.049 184.353 57.2356 184.287 56.4295C184.257 56.0373 184.551 55.696 184.954 55.6597C185.35 55.6307 185.695 55.9212 185.732 56.3206C185.805 57.2864 185.717 58.2596 185.468 59.2036C184.235 63.8732 179.401 66.6764 174.685 65.4563V65.4491Z" fill="url(#paint20_linear_40_2443)"/>
<path d="M180.509 56.531C180.282 57.3952 179.68 58.1214 178.903 58.5354L178.199 61.2006C178.096 61.5855 177.7 61.8033 177.311 61.7017L174.524 60.9827C174.135 60.881 173.915 60.5034 174.017 60.1185L174.722 57.4533C174.245 56.7126 174.076 55.7903 174.303 54.9261C174.751 53.2267 176.504 52.2101 178.213 52.653C179.922 53.096 180.964 54.8317 180.509 56.531Z" fill="url(#paint21_linear_40_2443)"/>
<path d="M15.1537 104.789C15.0217 104.818 14.8897 104.81 14.765 104.745C14.4642 104.6 14.3615 104.251 14.5302 103.924C16.5035 100.083 20.1712 97.2214 24.3378 96.241H24.3818C28.0569 95.3623 31.5559 96.2483 34.2407 98.79C34.4828 99.0224 34.4828 99.4073 34.2407 99.6832C33.9986 99.9592 33.6098 100.017 33.3678 99.7922C30.9324 97.4901 27.8882 96.713 24.5652 97.4973H24.5212C20.7287 98.3978 17.3984 100.99 15.6086 104.469C15.5132 104.658 15.3371 104.752 15.1537 104.796V104.789Z" fill="url(#paint22_linear_40_2443)"/>
<path d="M16.5605 117.991C16.3844 118.035 16.2084 117.991 16.0617 117.882C15.8049 117.672 15.7756 117.265 16.003 116.974C17.1913 115.457 16.7072 114.113 16.1424 112.552L16.113 112.465C15.1301 109.749 15.4088 106.858 16.8906 104.316C18.6364 101.317 21.8274 99.1531 25.4071 98.5286C29.4856 97.8241 31.921 99.981 33.8869 101.709C34.8552 102.559 35.7648 103.365 36.6891 103.656C37.0118 103.757 37.1659 104.113 37.0485 104.454C36.9238 104.796 36.5717 104.992 36.2489 104.89C35.1046 104.527 34.107 103.648 33.0507 102.712C31.1728 101.056 29.0528 99.1749 25.5245 99.7922C22.3188 100.351 19.48 102.261 17.9396 104.912C17.0446 106.452 16.201 108.921 17.2867 111.92L17.316 112C17.8955 113.605 18.6218 115.602 16.9493 117.73C16.8466 117.86 16.7145 117.94 16.5751 117.977L16.5605 117.991Z" fill="url(#paint23_linear_40_2443)"/>
<path d="M18.3092 119.756C18.0232 119.821 17.7297 119.676 17.6344 119.378C17.5243 119.051 17.7004 118.667 18.0232 118.529C18.1038 118.492 20.1651 117.447 18.5733 113.06C18.4339 112.683 18.1112 111.688 18.0452 111.187C17.3996 106.67 20.4512 102.152 24.8378 101.121C28.0214 100.373 31.1243 101.659 32.9289 104.469C34.1539 106.386 37.3522 107.171 37.3815 107.178C37.7116 107.258 37.8877 107.599 37.7923 107.948C37.6896 108.296 37.3448 108.514 37.0147 108.434C36.868 108.398 33.347 107.526 31.8799 105.239C30.3395 102.835 27.706 101.739 25.0139 102.37C21.3021 103.242 18.72 107.062 19.2629 110.889C19.3069 111.216 19.571 112.073 19.7323 112.508C20.5319 114.716 20.6199 116.553 19.9964 117.962C19.4389 119.226 18.522 119.654 18.4193 119.698C18.3826 119.712 18.3459 119.727 18.3092 119.734V119.756Z" fill="url(#paint24_linear_40_2443)"/>
<path d="M20.187 121.158C19.9522 121.216 19.7028 121.121 19.5708 120.911C19.3947 120.62 19.4828 120.221 19.7762 120.01C19.8936 119.923 22.659 117.861 21.5807 114.76C21.5 114.535 21.346 114.113 21.2066 113.721C21.1112 113.452 21.0159 113.206 20.9572 113.046C19.8862 110.061 20.4437 108.013 21.1039 106.815C21.9842 105.21 23.6347 104.019 25.6372 103.547C28.4027 102.893 30.354 104.978 31.9018 107.091C32.5106 107.926 33.4862 108.652 34.7993 109.233C35.1074 109.371 35.2247 109.749 35.0707 110.076C34.9167 110.402 34.5425 110.562 34.2418 110.431C32.7527 109.771 31.623 108.928 30.8968 107.926C29.0116 105.341 27.4931 104.411 25.8206 104.803C24.1848 105.188 22.8571 106.125 22.1675 107.381C21.412 108.754 21.3973 110.482 22.1235 112.508C22.1822 112.668 22.2703 112.915 22.3656 113.176C22.5123 113.569 22.6664 114.004 22.7471 114.229C23.8767 117.483 21.7201 120.119 20.4217 121.056C20.3484 121.107 20.2677 121.143 20.187 121.165V121.158Z" fill="url(#paint25_linear_40_2443)"/>
<path d="M25.0355 122.494C24.8081 122.545 24.566 122.465 24.434 122.261C24.2433 121.978 24.3166 121.572 24.6027 121.354C25.2115 120.882 25.4096 120.373 25.6223 119.821C25.9084 119.095 26.2605 118.187 27.6029 117.875C28.1604 117.744 28.6959 117.817 29.2387 118.122C29.5322 118.282 29.6202 118.667 29.4441 118.986C29.2681 119.306 28.8866 119.436 28.5932 119.277C28.2998 119.11 28.0577 119.073 27.7863 119.139C27.1408 119.291 27.0308 119.56 26.7667 120.228C26.5319 120.831 26.2092 121.659 25.2922 122.378C25.2115 122.436 25.1235 122.479 25.0355 122.494Z" fill="url(#paint26_linear_40_2443)"/>
<path d="M22.1796 122.254C21.9449 122.312 21.7102 122.225 21.5708 122.022C21.3874 121.739 21.4681 121.332 21.7542 121.114C22.8912 120.25 24.725 118.376 24.2556 115.566C24.1969 115.217 24.4243 114.869 24.7617 114.781C25.0992 114.694 25.4219 114.905 25.4806 115.246C25.9134 117.824 24.8058 120.337 22.4364 122.138C22.3557 122.196 22.275 122.24 22.187 122.254H22.1796Z" fill="url(#paint27_linear_40_2443)"/>
<path d="M29.2027 116.56C29.0487 116.597 28.8873 116.575 28.7553 116.48C26.4886 114.977 24.9701 113.822 24.2513 113.053C23.283 112.021 22.7695 110.714 22.8428 109.451C22.9015 108.514 23.283 107.679 23.9505 107.04C24.7281 106.284 25.667 105.921 26.5766 106.001C27.2882 106.066 28.3078 106.43 29.1514 107.809C30.0023 109.204 31.5941 110.46 32.247 110.932C32.5184 111.128 32.5624 111.528 32.3496 111.825C32.1369 112.123 31.7481 112.203 31.4841 112.007C30.7872 111.491 29.0487 110.126 28.0951 108.565C27.6183 107.788 27.0314 107.345 26.3786 107.286C25.8284 107.236 25.2489 107.475 24.7501 107.955C24.3393 108.347 24.1119 108.848 24.0752 109.429C24.0165 110.322 24.4273 111.324 25.1609 112.101C25.8137 112.798 27.3102 113.924 29.4741 115.362C29.7529 115.544 29.8116 115.943 29.6135 116.248C29.5108 116.408 29.3641 116.509 29.2027 116.546V116.56Z" fill="url(#paint28_linear_40_2443)"/>
<path d="M30.2734 114.033C30.1194 114.069 29.9507 114.048 29.8113 113.953C26.7891 111.847 25.5127 110.003 25.4613 109.93C25.2706 109.647 25.344 109.247 25.63 109.022C25.9161 108.797 26.2976 108.848 26.4883 109.124C26.503 109.138 27.7133 110.881 30.5522 112.857C30.8236 113.045 30.8823 113.445 30.6769 113.75C30.5742 113.902 30.4275 113.997 30.2734 114.033Z" fill="url(#paint29_linear_40_2443)"/>
<path d="M30.1552 119.313C30.7054 123.184 34.2191 125.617 37.9822 124.731C41.7453 123.845 44.3567 119.974 43.8066 116.103C43.2564 112.232 39.7427 109.8 35.9796 110.686C32.2165 111.572 29.6051 115.442 30.1552 119.313ZM36.163 111.942C39.2512 111.216 42.1341 113.206 42.5815 116.386C43.0363 119.56 40.887 122.741 37.7988 123.467C34.7106 124.193 31.8277 122.203 31.3803 119.022C30.9328 115.842 33.0747 112.668 36.163 111.942Z" fill="url(#paint30_linear_40_2443)"/>
<path d="M36.3018 120.693C36.4338 120.78 36.5952 120.802 36.7493 120.765C36.7566 120.765 36.7639 120.765 36.7713 120.765C36.9327 120.722 37.0794 120.605 37.1747 120.453L40.4684 115.035C40.6591 114.723 40.5784 114.331 40.2996 114.157C40.0136 113.982 39.6321 114.091 39.4414 114.404L36.5072 119.24L34.2846 117.773C34.0058 117.592 33.617 117.686 33.419 117.998C33.2209 118.303 33.2869 118.703 33.5657 118.884L36.3091 120.693H36.3018Z" fill="url(#paint31_linear_40_2443)"/>
<defs>
<linearGradient id="paint0_linear_40_2443" x1="123.682" y1="116.284" x2="66.0361" y2="113.017" gradientUnits="userSpaceOnUse">
<stop stop-color="white"/>
<stop offset="0.23" stop-color="#FE970F"/>
<stop offset="1" stop-color="#C95623"/>
</linearGradient>
<linearGradient id="paint1_linear_40_2443" x1="121.77" y1="150.451" x2="64.1167" y2="147.183" gradientUnits="userSpaceOnUse">
<stop stop-color="#FFE9CD"/>
<stop offset="1" stop-color="#C95623" stop-opacity="0"/>
</linearGradient>
<linearGradient id="paint2_linear_40_2443" x1="122.792" y1="132.377" x2="65.1392" y2="129.102" gradientUnits="userSpaceOnUse">
<stop stop-color="#FFE9CD"/>
<stop offset="0.18" stop-color="#F2CBAB" stop-opacity="0.82"/>
<stop offset="1" stop-color="#C95623" stop-opacity="0"/>
</linearGradient>
<linearGradient id="paint3_linear_40_2443" x1="108.581" y1="182.718" x2="105.432" y2="75.658" gradientUnits="userSpaceOnUse">
<stop stop-color="white"/>
<stop offset="0.23" stop-color="#FE970F"/>
<stop offset="1" stop-color="#C95623"/>
</linearGradient>
<linearGradient id="paint4_linear_40_2443" x1="113.365" y1="182.63" x2="110.216" y2="75.5697" gradientUnits="userSpaceOnUse">
<stop stop-color="white"/>
<stop offset="0.23" stop-color="#FE970F"/>
<stop offset="1" stop-color="#C95623"/>
</linearGradient>
<linearGradient id="paint5_linear_40_2443" x1="114.963" y1="182.574" x2="111.814" y2="75.5207" gradientUnits="userSpaceOnUse">
<stop stop-color="white"/>
<stop offset="0.23" stop-color="#FE970F"/>
<stop offset="1" stop-color="#C95623"/>
</linearGradient>
<linearGradient id="paint6_linear_40_2443" x1="122.12" y1="104.222" x2="59.4271" y2="48.0045" gradientUnits="userSpaceOnUse">
<stop stop-color="#FE970F"/>
<stop offset="1" stop-color="#C95623"/>
</linearGradient>
<linearGradient id="paint7_linear_40_2443" x1="143.707" y1="5.61631" x2="126.568" y2="134.928" gradientUnits="userSpaceOnUse">
<stop stop-color="white"/>
<stop offset="0.23" stop-color="#FE970F"/>
<stop offset="1" stop-color="#C95623"/>
</linearGradient>
<linearGradient id="paint8_linear_40_2443" x1="183.487" y1="44.2001" x2="171.168" y2="62.8619" gradientUnits="userSpaceOnUse">
<stop stop-color="white"/>
<stop offset="0.23" stop-color="#FE970F"/>
<stop offset="1" stop-color="#C95623"/>
</linearGradient>
<linearGradient id="paint9_linear_40_2443" x1="29.509" y1="-10.0263" x2="114.777" y2="215.337" gradientUnits="userSpaceOnUse">
<stop stop-color="white"/>
<stop offset="0.23" stop-color="#FE970F"/>
<stop offset="1" stop-color="#C95623"/>
</linearGradient>
<linearGradient id="paint10_linear_40_2443" x1="2.28007" y1="73.1399" x2="39.9239" y2="122.373" gradientUnits="userSpaceOnUse">
<stop stop-color="white"/>
<stop offset="0.23" stop-color="#FE970F"/>
<stop offset="1" stop-color="#C95623"/>
</linearGradient>
<linearGradient id="paint11_linear_40_2443" x1="114.824" y1="62.2033" x2="87.6822" y2="-0.176069" gradientUnits="userSpaceOnUse">
<stop stop-color="white"/>
<stop offset="0.23" stop-color="#FE970F"/>
<stop offset="1" stop-color="#C95623"/>
</linearGradient>
<linearGradient id="paint12_linear_40_2443" x1="80.6743" y1="43.8519" x2="156.376" y2="57.0702" gradientUnits="userSpaceOnUse">
<stop stop-color="white"/>
<stop offset="0.23" stop-color="#FE970F"/>
<stop offset="1" stop-color="#C95623"/>
</linearGradient>
<linearGradient id="paint13_linear_40_2443" x1="77.4852" y1="59.8577" x2="97.9074" y2="46.3508" gradientUnits="userSpaceOnUse">
<stop stop-color="#FE970F"/>
<stop offset="1" stop-color="#C95623"/>
</linearGradient>
<linearGradient id="paint14_linear_40_2443" x1="124.44" y1="14.4621" x2="83.5388" y2="54.8003" gradientUnits="userSpaceOnUse">
<stop stop-color="white"/>
<stop offset="0.23" stop-color="#FE970F"/>
<stop offset="1" stop-color="#C95623"/>
</linearGradient>
<radialGradient id="paint15_radial_40_2443" cx="0" cy="0" r="1" gradientUnits="userSpaceOnUse" gradientTransform="translate(45.7306 84.3079) scale(76.6265 75.8603)">
<stop stop-color="white"/>
<stop offset="1" stop-color="#C95623"/>
</radialGradient>
<radialGradient id="paint16_radial_40_2443" cx="0" cy="0" r="1" gradientUnits="userSpaceOnUse" gradientTransform="translate(177.191 26.1459) scale(69.8119 69.1137)">
<stop stop-color="white"/>
<stop offset="1" stop-color="#C95623"/>
</radialGradient>
<linearGradient id="paint17_linear_40_2443" x1="187.522" y1="45.2669" x2="164.178" y2="68.4635" gradientUnits="userSpaceOnUse">
<stop stop-color="#FE970F"/>
<stop offset="1" stop-color="#C95623"/>
</linearGradient>
<linearGradient id="paint18_linear_40_2443" x1="188.981" y1="46.741" x2="165.637" y2="69.9377" gradientUnits="userSpaceOnUse">
<stop stop-color="#FE970F"/>
<stop offset="1" stop-color="#C95623"/>
</linearGradient>
<linearGradient id="paint19_linear_40_2443" x1="184.916" y1="42.6411" x2="161.571" y2="65.8377" gradientUnits="userSpaceOnUse">
<stop stop-color="#FE970F"/>
<stop offset="1" stop-color="#C95623"/>
</linearGradient>
<linearGradient id="paint20_linear_40_2443" x1="191.668" y1="49.4398" x2="168.323" y2="72.6364" gradientUnits="userSpaceOnUse">
<stop stop-color="#FE970F"/>
<stop offset="1" stop-color="#C95623"/>
</linearGradient>
<linearGradient id="paint21_linear_40_2443" x1="188.333" y1="46.0769" x2="164.981" y2="69.2717" gradientUnits="userSpaceOnUse">
<stop stop-color="#FE970F"/>
<stop offset="1" stop-color="#C95623"/>
</linearGradient>
<linearGradient id="paint22_linear_40_2443" x1="39.955" y1="83.5613" x2="0.735197" y2="129.63" gradientUnits="userSpaceOnUse">
<stop stop-color="white"/>
<stop offset="0.23" stop-color="#FE970F"/>
<stop offset="1" stop-color="#C95623"/>
</linearGradient>
<linearGradient id="paint23_linear_40_2443" x1="42.8435" y1="86.0159" x2="3.61634" y2="132.085" gradientUnits="userSpaceOnUse">
<stop stop-color="white"/>
<stop offset="0.23" stop-color="#FE970F"/>
<stop offset="1" stop-color="#C95623"/>
</linearGradient>
<linearGradient id="paint24_linear_40_2443" x1="44.8711" y1="87.7444" x2="5.6512" y2="133.813" gradientUnits="userSpaceOnUse">
<stop stop-color="white"/>
<stop offset="0.23" stop-color="#FE970F"/>
<stop offset="1" stop-color="#C95623"/>
</linearGradient>
<linearGradient id="paint25_linear_40_2443" x1="45.5164" y1="88.2891" x2="6.29661" y2="134.365" gradientUnits="userSpaceOnUse">
<stop stop-color="white"/>
<stop offset="0.23" stop-color="#FE970F"/>
<stop offset="1" stop-color="#C95623"/>
</linearGradient>
<linearGradient id="paint26_linear_40_2443" x1="50.607" y1="92.6246" x2="11.3872" y2="138.7" gradientUnits="userSpaceOnUse">
<stop stop-color="white"/>
<stop offset="0.23" stop-color="#FE970F"/>
<stop offset="1" stop-color="#C95623"/>
</linearGradient>
<linearGradient id="paint27_linear_40_2443" x1="48.008" y1="90.4097" x2="8.7882" y2="136.486" gradientUnits="userSpaceOnUse">
<stop stop-color="white"/>
<stop offset="0.23" stop-color="#FE970F"/>
<stop offset="1" stop-color="#C95623"/>
</linearGradient>
<linearGradient id="paint28_linear_40_2443" x1="46.4118" y1="89.0513" x2="7.19197" y2="135.127" gradientUnits="userSpaceOnUse">
<stop stop-color="white"/>
<stop offset="0.23" stop-color="#FE970F"/>
<stop offset="1" stop-color="#C95623"/>
</linearGradient>
<linearGradient id="paint29_linear_40_2443" x1="47.0643" y1="89.6033" x2="7.84446" y2="135.679" gradientUnits="userSpaceOnUse">
<stop stop-color="white"/>
<stop offset="0.23" stop-color="#FE970F"/>
<stop offset="1" stop-color="#C95623"/>
</linearGradient>
<linearGradient id="paint30_linear_40_2443" x1="55.3013" y1="96.6188" x2="16.0741" y2="142.695" gradientUnits="userSpaceOnUse">
<stop stop-color="white"/>
<stop offset="0.23" stop-color="#FE970F"/>
<stop offset="1" stop-color="#C95623"/>
</linearGradient>
<linearGradient id="paint31_linear_40_2443" x1="55.088" y1="96.4371" x2="15.8609" y2="142.513" gradientUnits="userSpaceOnUse">
<stop stop-color="white"/>
<stop offset="0.23" stop-color="#FE970F"/>
<stop offset="1" stop-color="#C95623"/>
</linearGradient>
</defs>
</svg>
