<svg width="24" height="24" viewBox="0 0 24 24" fill="none" xmlns="http://www.w3.org/2000/svg">
<path d="M16.6154 2H7.38462C5.957 2.00153 4.58828 2.56932 3.5788 3.5788C2.56932 4.58828 2.00153 5.957 2 7.38462V16.6154C2.00153 18.043 2.56932 19.4117 3.5788 20.4212C4.58828 21.4307 5.957 21.9985 7.38462 22H16.6154C18.043 21.9985 19.4117 21.4307 20.4212 20.4212C21.4307 19.4117 21.9985 18.043 22 16.6154V7.38462C21.9985 5.957 21.4307 4.58828 20.4212 3.5788C19.4117 2.56932 18.043 2.00153 16.6154 2ZM12 16.6154C11.0872 16.6154 10.1948 16.3447 9.43583 15.8376C8.67683 15.3304 8.08527 14.6096 7.73594 13.7662C7.38661 12.9229 7.29521 11.9949 7.4733 11.0996C7.65139 10.2043 8.09096 9.3819 8.73643 8.73643C9.3819 8.09096 10.2043 7.65139 11.0996 7.4733C11.9949 7.29521 12.9229 7.38661 13.7662 7.73594C14.6096 8.08527 15.3304 8.67683 15.8376 9.43583C16.3447 10.1948 16.6154 11.0872 16.6154 12C16.6141 13.2237 16.1274 14.3969 15.2622 15.2622C14.3969 16.1274 13.2237 16.6141 12 16.6154ZM17.7692 7.38462C17.541 7.38462 17.3179 7.31694 17.1282 7.19016C16.9384 7.06337 16.7905 6.88317 16.7032 6.67233C16.6159 6.46149 16.593 6.22949 16.6376 6.00566C16.6821 5.78184 16.792 5.57625 16.9533 5.41488C17.1147 5.25351 17.3203 5.14362 17.5441 5.09909C17.768 5.05457 18 5.07742 18.2108 5.16475C18.4216 5.25209 18.6018 5.39998 18.7286 5.58973C18.8554 5.77948 18.9231 6.00256 18.9231 6.23077C18.9231 6.53679 18.8015 6.83027 18.5851 7.04666C18.3687 7.26305 18.0753 7.38462 17.7692 7.38462ZM15.0769 12C15.0769 12.6086 14.8965 13.2034 14.5584 13.7094C14.2203 14.2154 13.7397 14.6098 13.1775 14.8427C12.6153 15.0756 11.9966 15.1365 11.3997 15.0178C10.8029 14.8991 10.2546 14.606 9.82429 14.1757C9.39397 13.7454 9.10092 13.1971 8.9822 12.6003C8.86348 12.0034 8.92441 11.3847 9.15729 10.8225C9.39018 10.2603 9.78456 9.77973 10.2906 9.44163C10.7966 9.10354 11.3914 8.92308 12 8.92308C12.8161 8.92308 13.5987 9.24725 14.1757 9.82429C14.7527 10.4013 15.0769 11.1839 15.0769 12Z" fill="#7A828D"/>
</svg>
