<svg width="144" height="45" viewBox="0 0 144 45" fill="none" xmlns="http://www.w3.org/2000/svg">
<path d="M21.3748 30.8579C18.9197 33.2193 16.0147 34.4001 12.6412 34.4001C9.08969 34.4001 6.09102 33.1818 3.65461 30.7548C1.2182 28.3184 0 25.3291 0 21.787C0 18.2448 1.22758 15.293 3.68273 12.8659C6.13788 10.4295 9.12716 9.2207 12.6506 9.2207C15.8554 9.2207 18.6573 10.2983 21.0468 12.4536L17.2235 17.5701C15.996 16.2488 14.4685 15.5929 12.6506 15.5929C10.8327 15.5929 9.44578 16.2019 8.2182 17.4014C6.99062 18.6102 6.38152 20.0721 6.38152 21.7963C6.38152 23.5206 6.99062 24.9918 8.2182 26.21C9.44578 27.4282 10.9264 28.0466 12.6506 28.0466C14.5341 28.0466 16.099 27.3251 17.3266 25.8726L21.3842 30.8766L21.3748 30.8579Z" fill="#7A828D"/>
<path d="M46.9465 21.7776C46.9465 25.2916 45.7283 28.2809 43.2919 30.7267C40.8555 33.1725 37.8756 34.4001 34.3522 34.4001C30.8287 34.4001 27.802 33.1818 25.3656 30.7548C22.9292 28.3184 21.7109 25.3291 21.7109 21.787C21.7109 18.2448 22.9385 15.293 25.3937 12.8659C27.8488 10.4295 30.8381 9.2207 34.3615 9.2207C37.8849 9.2207 40.8649 10.4389 43.3013 12.8659C45.7377 15.3024 46.9559 18.2729 46.9559 21.787L46.9465 21.7776ZM40.5744 21.7776C40.5744 20.0815 39.9653 18.629 38.7377 17.4014C37.5101 16.1832 36.0483 15.5647 34.3522 15.5647C32.656 15.5647 31.1473 16.1738 29.9198 17.3733C28.6922 18.5821 28.0831 20.044 28.0831 21.7682C28.0831 23.4924 28.6922 24.9637 29.9198 26.1819C31.1473 27.4001 32.6279 28.0185 34.3522 28.0185C36.0764 28.0185 37.557 27.4094 38.7658 26.1819C39.9746 24.9637 40.5837 23.4831 40.5837 21.7682L40.5744 21.7776Z" fill="#7A828D"/>
<path d="M57.1896 3.77643C57.1896 4.84471 56.8241 5.75367 56.1026 6.4846C55.381 7.22489 54.4814 7.59034 53.4131 7.59034C52.3449 7.59034 51.4359 7.22489 50.6956 6.4846C49.9553 5.7443 49.5898 4.84471 49.5898 3.77643C49.5898 2.70816 49.9553 1.80857 50.6956 1.08702C51.4359 0.365465 52.3355 0 53.4131 0C54.4908 0 55.3435 0.374825 56.0744 1.10575C56.8147 1.84604 57.1802 2.73626 57.1802 3.76705L57.1896 3.77643ZM56.6273 33.688H50.2552V9.20212H56.6273V33.688Z" fill="#7A828D"/>
<path d="M86.1082 33.688H79.7361V21.7777C79.7361 20.0815 79.1176 18.6291 77.89 17.4015C76.6624 16.1739 75.1912 15.5648 73.4857 15.5648C71.7803 15.5648 70.2622 16.1739 69.0346 17.3734C67.807 18.5822 67.1886 20.0534 67.1886 21.7777V33.688H60.8164V21.7777C60.8164 18.2636 62.044 15.2837 64.4991 12.8567C66.9543 10.4203 69.9436 9.21143 73.467 9.21143C76.9904 9.21143 79.9797 10.4296 82.4349 12.8567C84.89 15.2931 86.1176 18.2636 86.1176 21.7777V33.688H86.1082Z" fill="#7A828D"/>
<path d="M115.192 30.9331L113.44 32.6199C112.156 33.8568 110.75 34.8033 109.223 35.4873V37.8488C109.223 39.3106 109.935 40.6788 111.125 41.5221L115.595 44.6707V30.5396L115.182 30.9238L115.192 30.9331Z" fill="#7A828D"/>
<path d="M139.595 12.7912C137.159 10.3548 134.179 9.146 130.655 9.146C127.132 9.146 124.339 10.3173 121.931 12.6038L107.322 26.2196C106.132 27.3816 104.698 27.9719 103.012 27.9719C101.325 27.9719 99.8067 27.3628 98.5791 26.1353C97.3516 24.9171 96.7425 23.4365 96.7425 21.7216C96.7425 20.0068 97.3516 18.5355 98.5791 17.3267C99.8067 16.1179 101.287 15.5181 103.012 15.5181C104.736 15.5181 106.169 16.1272 107.397 17.3548C108.493 18.4418 109.065 19.735 109.187 21.1969L114.397 16.324C113.807 15.0496 113.01 13.8689 111.942 12.81C109.505 10.3736 106.526 9.16474 103.002 9.16474C99.4787 9.16474 96.4894 10.3829 94.0343 12.81C91.5791 15.2464 90.3516 18.2169 90.3516 21.731C90.3516 25.245 91.5698 28.2718 94.0062 30.6988C96.4426 33.1353 99.4412 34.3441 102.993 34.3441C106.544 34.3441 109.281 33.1727 111.67 30.8863L111.689 30.905L126.279 17.2611C127.488 16.1085 128.941 15.5181 130.646 15.5181C132.352 15.5181 133.804 16.1272 135.032 17.3548C136.259 18.573 136.868 20.0349 136.868 21.731C136.868 23.4271 136.259 24.9264 135.05 26.1446C133.841 27.3628 132.37 27.9813 130.637 27.9813C128.903 27.9813 127.432 27.3722 126.204 26.1446C125.117 25.067 124.546 23.7738 124.414 22.3026L119.195 27.1848C119.785 28.4592 120.582 29.6399 121.641 30.6988C124.077 33.1353 127.076 34.3441 130.627 34.3441C134.179 34.3441 137.131 33.1165 139.567 30.6707C142.003 28.225 143.222 25.2357 143.222 21.7216C143.222 18.2076 142.003 15.2277 139.567 12.8006L139.595 12.7912Z" fill="#7A828D"/>
<path d="M111.678 30.8866C109.288 33.173 106.402 34.3444 103.001 34.3444C99.599 34.3444 96.4504 33.1262 94.014 30.6991C91.5776 28.2627 90.3594 25.2735 90.3594 21.7313C90.3594 18.1891 91.5869 15.2373 94.0421 12.8103C96.4972 10.3739 99.4865 9.16504 103.01 9.16504C105.231 9.16504 107.227 9.64294 109.017 10.6081C108.145 10.3551 107.227 10.2239 106.271 10.2239C100.752 10.2239 96.2817 14.6938 96.2817 20.2132C96.2817 25.7326 100.752 30.2025 106.271 30.2025C107.686 30.2025 109.11 30.0432 110.254 29.3779C114.592 26.8477 126.296 17.2895 126.296 17.2895L111.687 30.9053L111.678 30.8866Z" fill="#7A828D"/>
<path d="M121.931 12.5945C124.321 10.3081 127.207 9.13672 130.608 9.13672C134.01 9.13672 137.158 10.3549 139.595 12.782C142.031 15.2184 143.25 18.2077 143.25 21.7498C143.25 25.292 142.022 28.2438 139.567 30.6708C137.112 33.1072 134.122 34.3161 130.599 34.3161C128.378 34.3161 126.382 33.8382 124.592 32.873C125.464 33.126 126.382 33.2572 127.338 33.2572C132.857 33.2572 137.327 28.7873 137.327 23.2679C137.327 17.7485 132.857 13.2786 127.338 13.2786C125.923 13.2786 124.499 13.4379 123.355 14.1032C119.017 16.6334 107.312 26.1916 107.312 26.1916L121.922 12.5758L121.931 12.5945Z" fill="#7A828D"/>
<path d="M115.607 44.6803L111.137 41.5317C109.947 40.6883 109.234 39.3202 109.234 37.8583V35.4969C109.928 35.1876 110.593 34.8128 111.24 34.3911V36.2184C111.24 38.027 111.727 39.7231 112.542 40.7726L115.607 44.6803Z" fill="#7A828D"/>
</svg>
