<svg width="95" height="30" viewBox="0 0 95 30" fill="none" xmlns="http://www.w3.org/2000/svg">
<path d="M14.176 20.7235C12.5478 22.3094 10.6212 23.1024 8.38381 23.1024C6.02839 23.1024 4.03964 22.2843 2.42378 20.6543C0.807925 19.0181 0 17.0105 0 14.6317C0 12.2528 0.814139 10.2704 2.44243 8.64047C4.07071 7.00422 6.05325 6.19238 8.39003 6.19238C10.5155 6.19238 12.3737 6.91611 13.9585 8.36356L11.4229 11.7997C10.6087 10.9123 9.59571 10.4718 8.39003 10.4718C7.18435 10.4718 6.26455 10.8809 5.45041 11.6864C4.63627 12.4982 4.2323 13.48 4.2323 14.6379C4.2323 15.7959 4.63627 16.784 5.45041 17.6021C6.26455 18.4202 7.2465 18.8356 8.39003 18.8356C9.63921 18.8356 10.6771 18.351 11.4912 17.3755L14.1823 20.7361L14.176 20.7235Z" fill="white"/>
<path d="M31.135 14.6195C31.135 16.9795 30.3271 18.987 28.7112 20.6296C27.0953 22.2721 25.119 23.0965 22.7823 23.0965C20.4455 23.0965 18.4381 22.2784 16.8222 20.6484C15.2064 19.0122 14.3984 17.0046 14.3984 14.6258C14.3984 12.2469 15.2126 10.2646 16.8409 8.6346C18.4692 6.99835 20.4517 6.18652 22.7885 6.18652C25.1252 6.18652 27.1016 7.00465 28.7174 8.6346C30.3333 10.2709 31.1412 12.2658 31.1412 14.6258L31.135 14.6195ZM26.9089 14.6195C26.9089 13.4804 26.5049 12.505 25.6908 11.6805C24.8767 10.8624 23.9071 10.4471 22.7823 10.4471C21.6574 10.4471 20.6568 10.8561 19.8426 11.6617C19.0285 12.4735 18.6245 13.4552 18.6245 14.6132C18.6245 15.7712 19.0285 16.7592 19.8426 17.5773C20.6568 18.3955 21.6387 18.8108 22.7823 18.8108C23.9258 18.8108 24.9077 18.4018 25.7094 17.5773C26.5112 16.7592 26.9151 15.7649 26.9151 14.6132L26.9089 14.6195Z" fill="white"/>
<path d="M37.923 2.53619C37.923 3.25362 37.6807 3.86407 37.2021 4.35494C36.7236 4.85211 36.1269 5.09755 35.4185 5.09755C34.71 5.09755 34.1071 4.85211 33.6162 4.35494C33.1252 3.85777 32.8828 3.25362 32.8828 2.53619C32.8828 1.81875 33.1252 1.2146 33.6162 0.730019C34.1071 0.245437 34.7038 0 35.4185 0C36.1332 0 36.6987 0.251731 37.1835 0.742606C37.6745 1.23977 37.9168 1.83763 37.9168 2.52989L37.923 2.53619ZM37.5502 22.6243H33.3241V6.17999H37.5502V22.6243Z" fill="white"/>
<path d="M57.1098 22.6245H52.8837V14.6258C52.8837 13.4867 52.4735 12.5113 51.6594 11.6868C50.8452 10.8624 49.8695 10.4534 48.7384 10.4534C47.6073 10.4534 46.6005 10.8624 45.7864 11.668C44.9722 12.4798 44.562 13.4678 44.562 14.6258V22.6245H40.3359V14.6258C40.3359 12.2658 41.1501 10.2646 42.7784 8.6346C44.4067 6.99835 46.3892 6.18652 48.726 6.18652C51.0627 6.18652 53.0453 7.00465 54.6736 8.6346C56.3019 10.2709 57.116 12.2658 57.116 14.6258V22.6245H57.1098Z" fill="white"/>
<path d="M76.3924 20.7741L75.2303 21.9069C74.3788 22.7376 73.4466 23.3732 72.4336 23.8326V25.4185C72.4336 26.4003 72.9059 27.3191 73.6952 27.8855L76.6597 30V20.5098L76.3862 20.7678L76.3924 20.7741Z" fill="url(#paint0_linear_40_25199)"/>
<path d="M92.5769 8.58382C90.9611 6.94758 88.9848 6.13574 86.648 6.13574C84.3112 6.13574 82.4592 6.9224 80.862 8.45796L71.173 17.6021C70.3837 18.3824 69.4329 18.7789 68.3142 18.7789C67.1955 18.7789 66.1887 18.3699 65.3746 17.5454C64.5605 16.7273 64.1565 15.733 64.1565 14.5813C64.1565 13.4296 64.5605 12.4416 65.3746 11.6298C66.1887 10.8179 67.1707 10.4152 68.3142 10.4152C69.4577 10.4152 70.4086 10.8242 71.2227 11.6486C71.9499 12.3787 72.329 13.2471 72.4098 14.2289L75.8652 10.9564C75.4737 10.1005 74.9454 9.30755 74.2369 8.59641C72.6211 6.96016 70.6448 6.14833 68.308 6.14833C65.9712 6.14833 63.9887 6.96645 62.3604 8.59641C60.7321 10.2327 59.918 12.2276 59.918 14.5876C59.918 16.9476 60.7259 18.9803 62.3418 20.6103C63.9576 22.2465 65.9464 23.0583 68.3018 23.0583C70.6572 23.0583 72.4719 22.2717 74.0567 20.7361L74.0691 20.7487L83.7457 11.5857C84.5474 10.8116 85.5107 10.4152 86.6418 10.4152C87.7729 10.4152 88.7362 10.8242 89.5503 11.6486C90.3644 12.4668 90.7684 13.4485 90.7684 14.5876C90.7684 15.7267 90.3645 16.7336 89.5627 17.5517C88.761 18.3699 87.7853 18.7852 86.6355 18.7852C85.4858 18.7852 84.5101 18.3761 83.6959 17.5517C82.975 16.828 82.5959 15.9595 82.5089 14.9715L79.0472 18.2503C79.4388 19.1062 79.967 19.8991 80.6693 20.6103C82.2852 22.2465 84.2739 23.0583 86.6293 23.0583C88.9848 23.0583 90.9424 22.2339 92.5583 20.5914C94.1741 18.9488 94.9821 16.9413 94.9821 14.5813C94.9821 12.2213 94.1741 10.2201 92.5583 8.59012L92.5769 8.58382Z" fill="url(#paint1_linear_40_25199)"/>
<path d="M74.0645 20.7362C72.4798 22.2718 70.5656 23.0584 68.3096 23.0584C66.0536 23.0584 63.9654 22.2403 62.3496 20.6104C60.7337 18.9741 59.9258 16.9666 59.9258 14.5877C59.9258 12.2089 60.7399 10.2265 62.3682 8.59652C63.9965 6.96027 65.979 6.14844 68.3158 6.14844C69.7887 6.14844 71.1125 6.46939 72.2995 7.1176C71.7215 6.94768 71.1125 6.85958 70.4786 6.85958C66.818 6.85958 63.8536 9.86147 63.8536 13.5682C63.8536 17.2749 66.818 20.2768 70.4786 20.2768C71.417 20.2768 72.3617 20.1698 73.1199 19.723C75.9973 18.0238 83.7597 11.6047 83.7597 11.6047L74.0707 20.7488L74.0645 20.7362Z" fill="url(#paint2_linear_40_25199)"/>
<path d="M80.8631 8.45796C82.4479 6.9224 84.3621 6.13574 86.6181 6.13574C88.874 6.13574 90.9622 6.95387 92.5781 8.58382C94.1939 10.2201 95.0019 12.2276 95.0019 14.6065C95.0019 16.9853 94.1877 18.9677 92.5594 20.5977C90.9312 22.2339 88.9486 23.0458 86.6118 23.0458C85.1389 23.0458 83.8152 22.7248 82.6281 22.0766C83.2061 22.2465 83.8152 22.3346 84.4491 22.3346C88.1096 22.3346 91.0741 19.3327 91.0741 15.626C91.0741 11.9193 88.1096 8.91737 84.4491 8.91737C83.5106 8.91737 82.566 9.02435 81.8078 9.47118C78.9303 11.1704 71.168 17.5895 71.168 17.5895L80.8569 8.44537L80.8631 8.45796Z" fill="url(#paint3_linear_40_25199)"/>
<path d="M76.6675 29.9998L73.703 27.8853C72.9137 27.3189 72.4414 26.4001 72.4414 25.4184V23.8324C72.9013 23.6248 73.3426 23.373 73.7714 23.0898V24.317C73.7714 25.5316 74.0946 26.6707 74.6352 27.3756L76.6675 29.9998Z" fill="url(#paint4_linear_40_25199)"/>
<defs>
<linearGradient id="paint0_linear_40_25199" x1="70.8426" y1="25.8213" x2="77.4567" y2="25.1951" gradientUnits="userSpaceOnUse">
<stop stop-color="#FE970F"/>
<stop offset="1" stop-color="#C95623"/>
</linearGradient>
<linearGradient id="paint1_linear_40_25199" x1="94.4973" y1="24.8205" x2="65.6675" y2="7.94443" gradientUnits="userSpaceOnUse">
<stop stop-color="#FE970F"/>
<stop offset="1" stop-color="#C95623"/>
</linearGradient>
<linearGradient id="paint2_linear_40_25199" x1="56.7189" y1="20.0062" x2="88.728" y2="5.40934" gradientUnits="userSpaceOnUse">
<stop stop-color="#FE970F"/>
<stop offset="1" stop-color="#C95623"/>
</linearGradient>
<linearGradient id="paint3_linear_40_25199" x1="78.1845" y1="8.67822" x2="91.1925" y2="23.7595" gradientUnits="userSpaceOnUse">
<stop stop-color="#FE970F"/>
<stop offset="1" stop-color="#C95623"/>
</linearGradient>
<linearGradient id="paint4_linear_40_25199" x1="75.1076" y1="26.3057" x2="73.3752" y2="28.1657" gradientUnits="userSpaceOnUse">
<stop stop-color="#FE970F"/>
<stop offset="1" stop-color="#C95623"/>
</linearGradient>
</defs>
</svg>
