<svg width="24" height="24" viewBox="0 0 24 24" fill="none" xmlns="http://www.w3.org/2000/svg">
<path d="M21.5175 17.1245C21.4444 17.0988 21.3756 17.0738 21.3208 17.0437C19.6792 16.134 18.567 14.9891 17.9214 13.5452C17.547 12.7083 17.6823 12.2204 18.3864 11.8632C18.7974 11.6546 19.2112 11.3731 19.6895 10.9763C19.9176 10.7867 20.3929 10.3929 20.0843 9.81826C19.7721 9.23776 19.2281 9.31933 18.8464 9.43175C18.529 9.52507 18.2256 9.63309 17.9433 9.7536C17.7254 9.84692 17.5784 9.86823 17.5075 9.81753C17.4359 9.76609 17.4066 9.6206 17.4212 9.38473C17.4629 8.70796 17.4563 8.03414 17.4446 7.2861C17.4066 4.91853 16.1877 3.12559 14.1015 2.36726C11.8319 1.5428 9.27188 2.13653 7.73122 3.84644C6.57736 5.12648 6.46476 6.62183 6.51521 8.04736C6.51521 8.23107 6.53714 8.43241 6.55835 8.6264C6.60295 9.03863 6.64975 9.46482 6.47938 9.6882C6.27757 9.95347 6.02164 9.84031 5.62021 9.63456C5.43229 9.53757 5.23778 9.43763 5.04621 9.40603C4.60894 9.33402 4.15851 9.30316 3.88431 9.7852C3.57939 10.3209 3.94134 10.7103 4.24041 10.9565C4.54679 11.2093 4.88461 11.4297 5.21073 11.6428C5.31602 11.7119 5.42131 11.7802 5.52588 11.85C6.38578 12.4254 6.44502 12.637 6.01653 13.5908C5.47982 14.7841 4.60455 15.768 3.26132 16.6873C3.13189 16.7762 2.95055 16.8475 2.77506 16.9173C2.37728 17.0745 1.92612 17.2524 2.01021 17.6903C2.106 18.1922 2.7056 18.3414 3.23426 18.4729C3.36076 18.5045 3.48068 18.5339 3.59256 18.5677C3.65983 18.5883 3.73075 18.6066 3.79949 18.6243C4.19654 18.7279 4.57165 18.8256 4.62064 19.304C4.69595 20.0469 5.22828 20.124 5.68455 20.1086C6.89325 20.0667 8.06685 20.4194 9.38083 21.2189C10.2356 21.7391 11.1116 22 11.9832 22C12.7992 22 13.6116 21.7715 14.3977 21.3137C15.4901 20.6781 16.8209 20.0373 18.4179 20.1005C18.9641 20.1225 19.2822 19.8801 19.3151 19.4193C19.3494 18.9366 19.6602 18.7984 20.096 18.6551C20.2115 18.6169 20.3307 18.5816 20.4463 18.5464C20.7124 18.4663 20.9874 18.384 21.2455 18.2664C21.2989 18.2422 21.3588 18.2209 21.4217 18.1981C21.6718 18.1084 21.9825 17.9967 21.9994 17.6374C22.0154 17.3016 21.7273 17.1987 21.5175 17.1238V17.1245Z" fill="#FE970F"/>
</svg>
