<svg width="24" height="24" viewBox="0 0 24 24" fill="none" xmlns="http://www.w3.org/2000/svg">
<path d="M2.32852 12.2942L5.98381 13.5961C6.73913 13.8648 7.58212 13.7704 8.25243 13.341L16.0412 8.35473C16.2174 8.24163 16.4529 8.26374 16.6035 8.4083C16.7823 8.58006 16.7761 8.85981 16.5911 9.02477L10.8274 14.1471C10.4989 14.4387 10.5246 14.9455 10.8814 15.2048L16.9692 19.6426C18.0663 20.4428 19.6549 19.8263 19.8656 18.5185L21.9846 5.38118C22.1342 4.45519 21.1673 3.73158 20.2685 4.09636L2.30815 11.3929C2.12131 11.4686 2 11.6446 2 11.8393C2 12.0417 2.13105 12.2228 2.32852 12.2934V12.2942Z" fill="#7A828D"/>
</svg>
