<svg width="24" height="24" viewBox="0 0 24 24" fill="none" xmlns="http://www.w3.org/2000/svg">
<path d="M21.9281 5.92407C21.2916 6.2034 20.5935 6.373 19.9056 6.48274C20.2342 6.43286 20.7064 5.85423 20.9015 5.62477C21.1889 5.2756 21.4354 4.86657 21.5688 4.43759C21.5894 4.40766 21.5996 4.35778 21.5688 4.33783C21.5278 4.31788 21.4969 4.33783 21.4661 4.33783C20.6961 4.73688 19.9056 5.0262 19.0638 5.22572C18.9919 5.24568 18.9405 5.22572 18.8995 5.18581C18.8276 5.106 18.7661 5.03617 18.6942 4.97632C18.3451 4.687 17.9653 4.45754 17.5341 4.28795C16.9694 4.06847 16.3534 3.9687 15.7476 4.00861C15.1624 4.04852 14.5773 4.20814 14.0537 4.4775C13.5301 4.74686 13.0578 5.11599 12.6882 5.55495C12.2981 6.01386 12.0209 6.56255 11.8772 7.14118C11.7335 7.69985 11.7437 8.24855 11.8361 8.8172C11.8463 8.90698 11.8361 8.92693 11.754 8.90698C8.45843 8.42812 5.72749 7.28084 3.50992 4.82666C3.41752 4.71692 3.36621 4.71692 3.28408 4.82666C2.31903 6.2433 2.78102 8.50793 3.99248 9.62528C4.15674 9.77492 4.321 9.92458 4.49553 10.0543C4.43393 10.0642 3.62288 9.98443 2.90422 9.62528C2.81183 9.56542 2.76047 9.59535 2.7502 9.70509C2.7502 9.85474 2.75023 9.99441 2.78103 10.164C2.96583 11.6006 3.99246 12.9175 5.38871 13.4362C5.55298 13.5061 5.73779 13.5659 5.91232 13.5959C5.59405 13.6657 5.26551 13.7156 4.35178 13.6457C4.23885 13.6258 4.1978 13.6757 4.23886 13.7854C4.92672 15.6011 6.40511 16.1398 7.5139 16.4491C7.65763 16.479 7.81162 16.479 7.95535 16.509C7.95535 16.5189 7.93479 16.5189 7.92452 16.5389C7.55493 17.0876 6.28188 17.4866 5.68642 17.6961C4.60843 18.0653 3.42778 18.2249 2.28819 18.1152C2.10339 18.0852 2.06232 18.0952 2.02125 18.1152C1.96992 18.1451 2.0213 18.185 2.07264 18.2349C2.30877 18.3845 2.5449 18.5142 2.78103 18.6439C3.50996 19.013 4.25937 19.3123 5.0499 19.5318C9.13599 20.6292 13.7354 19.8211 16.7948 16.8581C19.1972 14.5336 20.0493 11.3312 20.0493 8.11886C20.0493 7.98916 20.2034 7.91934 20.2958 7.85948C20.922 7.40057 21.4251 6.85186 21.8974 6.2433C22 6.10363 22 5.98392 22 5.93404V5.91408C22 5.8642 22 5.87417 21.9178 5.91408L21.9281 5.92407Z" fill="#7A828D"/>
</svg>
