<svg width="20" height="17" viewBox="0 0 20 17" fill="none" xmlns="http://www.w3.org/2000/svg">
<path d="M19.5084 2.37004C18.8884 2.65004 18.2084 2.82003 17.5384 2.93003C17.8584 2.88003 18.3184 2.30003 18.5084 2.07003C18.7884 1.72003 19.0284 1.31003 19.1584 0.88003C19.1784 0.85003 19.1884 0.800039 19.1584 0.780039C19.1184 0.760039 19.0884 0.780039 19.0584 0.780039C18.3084 1.18004 17.5384 1.47004 16.7184 1.67004C16.6484 1.69004 16.5984 1.67003 16.5584 1.63003C16.4884 1.55003 16.4284 1.48004 16.3584 1.42004C16.0184 1.13004 15.6484 0.900036 15.2284 0.730036C14.6784 0.510036 14.0784 0.410037 13.4884 0.450037C12.9184 0.490037 12.3484 0.650038 11.8384 0.920038C11.3284 1.19004 10.8684 1.56004 10.5084 2.00004C10.1284 2.46004 9.85839 3.01004 9.71839 3.59004C9.57839 4.15004 9.58835 4.70003 9.67835 5.27003C9.68835 5.36003 9.6784 5.38003 9.5984 5.36003C6.3884 4.88003 3.72837 3.73003 1.56837 1.27003C1.47837 1.16003 1.4284 1.16003 1.3484 1.27003C0.408398 2.69003 0.858401 4.96003 2.0384 6.08003C2.1984 6.23003 2.35839 6.38003 2.52839 6.51003C2.46839 6.52003 1.6784 6.44003 0.978403 6.08003C0.888403 6.02003 0.838379 6.05003 0.828379 6.16003C0.828379 6.31003 0.828408 6.45004 0.858408 6.62004C1.03841 8.06004 2.03839 9.38003 3.39839 9.90003C3.55839 9.97003 3.7384 10.03 3.9084 10.06C3.5984 10.13 3.27838 10.18 2.38838 10.11C2.27838 10.09 2.23839 10.14 2.27839 10.25C2.94839 12.07 4.38839 12.61 5.46839 12.92C5.60839 12.95 5.75839 12.95 5.89839 12.98C5.89839 12.99 5.87836 12.99 5.86836 13.01C5.50836 13.56 4.26836 13.96 3.68836 14.17C2.63836 14.54 1.48837 14.7 0.378367 14.59C0.198367 14.56 0.158357 14.57 0.118357 14.59C0.0683568 14.62 0.118406 14.66 0.168406 14.71C0.398406 14.86 0.628408 14.99 0.858408 15.12C1.56841 15.49 2.29837 15.79 3.06837 16.01C7.04837 17.11 11.5284 16.3 14.5084 13.33C16.8484 11 17.6784 7.79003 17.6784 4.57003C17.6784 4.44003 17.8284 4.37004 17.9184 4.31004C18.5284 3.85004 19.0184 3.30003 19.4784 2.69003C19.5784 2.55003 19.5784 2.43003 19.5784 2.38003V2.36003C19.5784 2.31003 19.5784 2.32003 19.4984 2.36003L19.5084 2.37004Z" fill="url(#paint0_linear_50_5462)"/>
<defs>
<linearGradient id="paint0_linear_50_5462" x1="-79.7717" y1="22.63" x2="178.328" y2="-19.59" gradientUnits="userSpaceOnUse">
<stop offset="0.0885417" stop-color="#C95623"/>
<stop offset="0.505208" stop-color="#FFA834"/>
</linearGradient>
</defs>
</svg>
