<svg width="24" height="24" viewBox="0 0 24 24" fill="none" xmlns="http://www.w3.org/2000/svg">
<path d="M2.00257 7.88183L2.94589 9.04538C2.94589 9.04538 4.72771 7.45872 5.14696 8.51649C5.56621 9.57427 8.39703 18.5671 8.39703 18.5671C8.39703 18.5671 9.23553 21 11.1222 21C12.8353 21 14.2494 19.3969 15.3508 18.2706C18.313 15.2403 21.3913 11.5034 21.9591 7.14052C22.2186 5.15328 21.2418 3.06634 19.051 3.00218C17.9299 2.96923 16.7683 3.31084 15.8482 3.95678C14.5793 4.84809 13.8593 6.28216 13.5329 7.77692C13.5329 7.77692 15.2099 6.61336 16.0484 7.98847C16.557 8.82256 16.2047 9.889 15.8104 10.6901C15.4289 11.4653 15.0045 12.2187 14.5398 12.9462C14.215 13.4542 13.703 14.336 13.0079 14.336C12.1626 14.336 11.8773 12.2621 11.751 11.6976C11.3069 9.713 11.3198 7.65206 10.7295 5.70211C10.3747 4.52902 9.61182 2.723 8.08001 3.1227C4.82995 3.96892 2 7.88356 2 7.88356L2.00257 7.88183Z" fill="#7A828D"/>
</svg>
